<?xml version="1.0" encoding="UTF-8"?>
<svg id="Layer_1" data-name="Layer 1" xmlns="http://www.w3.org/2000/svg" viewBox="0 0 253.28 100">
  <defs>
    <style>
      .cls-1 {
        fill: #e9d02f;
      }

      .cls-2, .cls-3 {
        fill-rule: evenodd;
      }

      .cls-2, .cls-4 {
        fill: #04314d;
      }

      .cls-3, .cls-5 {
        fill: #0e9e34;
      }
    </style>
  </defs>
  <g>
    <g>
      <g>
        <path class="cls-5" d="M101.83,51.96c-.09,.15-.18,.31-.27,.46-1.97,3.08-5.46,4.46-8.95,4.34-.11,1.63-.25,3.27-.45,4.89-.09,.72-.93,1.31-1.62,.96-.79-.4-.81-1.79-.97-2.55-.18-.86-.33-1.73-.45-2.6-.06-.45-.11-.9-.16-1.36-1.15-.34-2.82-.98-2.51-2.09,.22-.79,1.39-1.03,2.34-1.01,0-.27,0-.55,0-.82,0-1.89,.05-3.25,.16-4.84,.08-1.08,.17-1.98,.24-2.63-.13-.05-.47-.2-.66-.39-.03-.03-.06-.07-.09-.12-.05-.12-.04-.25,0-.39,.1-.42,.35-.83,.6-1.17,.39-.52,.94-.88,1.59-.93,2.19-.16,2.45,3.33,2.4,4.79-.07,2.41-.13,4.82-.24,7.23,.04,0,.08-.01,.13-.02,1.73-.36,2.98-1.04,4.18-2.33,1.87-2.02,2.47-5.34,1.1-7.79-1.66-2.96-5.4-4.17-8.46-2.69-1.53,.75-2.41,1.99-2.8,3.63-.19,.82-.16,1.6-.1,2.43,.03,.49,.28,1.13,.03,1.6-.32,.61-.91,.23-1.13-.22-.59-1.2-.72-3.28-.45-4.54,.44-1.98,1.69-3.9,3.34-5.05,3.58-2.49,9.07-1.58,11.96,1.53,2.88,3.11,3.32,8.02,1.25,11.7Z"/>
        <path class="cls-5" d="M117.43,54.77c-.87,2.79-2.12,5.9-4.16,5.9-.14,0-1.11,0-1.69-.69-.78-.92-1.08-2.06-1.14-4.49-.27,.95-.53,1.85-.63,2.19-.43,1.38-1.08,2.91-2.79,2.88-2.04-.04-2.69-2.34-2.86-4.01-.21-2.04-.03-4.75,.39-6.78,.17-.85,1.28-1.3,2.01-1.09,.94,.27,1.15,1.15,1,2.03-.17,1.01-.38,2.78-.46,3.8-.05,.6-.27,4.61,1.23,3.52,.34-.24,.53-.67,.7-1.04,.26-.56,.4-1.16,.58-1.75,.39-1.3,.65-2.63,.99-3.94,.24-.94,.38-2.1,1.37-2.56,.07-.03,.13-.06,.2-.08,.45-.14,1.57,.09,1.73,1.08,.24,1.43-.16,3.01-.59,6.77-.04,.38-.53,2.67,.13,2.88,.96,.3,1.95-1.08,3.14-4.88,.07-.23,.31-.35,.54-.28,.23,.07,.35,.31,.28,.54Z"/>
        <path class="cls-5" d="M130.06,54.73c-.87,2.79-2,5.94-4.04,5.94-.14,0-1.46,.11-2.04-.58-.88-1.04-1.06-2.48-.8-5.62,.09-1.1,.62-4.09,0-3.52-.52,.49-.84,1.2-1.13,1.83-.42,.91-.77,1.85-1.1,2.79-.33,.94-.64,1.88-.97,2.83-.13,.39-.58,2.27-1.77,2.13-1.37-.16-1.62-2.19-1.71-3.48-.08-1.26-.03-1.7-.03-2.95,0-1.05,.16-2.38,1.49-2.38,.82,0,1.77,.78,1.67,1.72-.07,.65-.07,1.26-.03,1.86v.79c.59-1.75,1.44-3.99,2.39-5.55,.91-1.51,1.81-2.06,2.78-2.06,.47,0,1.57,.31,1.89,1.26,.46,1.38-.16,3.01-.59,6.77-.04,.38-.53,2.67,.13,2.88,.96,.3,1.84-1.12,3.03-4.92,.07-.23,.31-.35,.54-.28,.23,.07,.36,.31,.28,.54Z"/>
        <path class="cls-5" d="M142.7,54.73c-.87,2.79-2,5.94-4.04,5.94-.14,0-1.46,.11-2.04-.58-.88-1.04-1.06-2.48-.8-5.62,.09-1.1,.62-4.09,0-3.52-.52,.49-.84,1.2-1.13,1.83-.42,.91-.77,1.85-1.1,2.79-.33,.94-.64,1.88-.97,2.83-.13,.39-.58,2.27-1.77,2.13-1.37-.16-1.62-2.19-1.71-3.48-.08-1.26-.03-1.7-.03-2.95,0-1.05,.16-2.38,1.49-2.38,.82,0,1.77,.78,1.67,1.72-.07,.65-.07,1.26-.03,1.86v.79c.59-1.75,1.44-3.99,2.39-5.55,.91-1.51,1.81-2.06,2.78-2.06,.47,0,1.57,.31,1.89,1.26,.46,1.38-.16,3.01-.59,6.77-.04,.38-.53,2.67,.13,2.88,.96,.3,1.84-1.12,3.03-4.92,.07-.23,.31-.35,.54-.28,.23,.07,.36,.31,.28,.54Z"/>
        <path class="cls-5" d="M155.21,54.72c-.87,2.79-2.12,5.9-4.16,5.9-.14,0-1.11,0-1.69-.69-.69-.81-1-1.8-1.11-3.68-.2,.94-.43,1.87-.95,2.7-.65,1.02-1.45,1.59-2.7,1.61-1.51,.02-2.86-1.92-2.85-4.69,0-1.59,.28-4.46,1.79-6.14,.92-1.03,2.46-1.4,3.59-1.15,.77,.17,1.45,.71,1.75,1.05,.3-.61,.68-.88,1.09-1.01,.45-.14,1.57,.09,1.73,1.08,.24,1.43-.16,3.01-.59,6.77-.04,.38-.53,2.67,.13,2.88,.96,.3,1.95-1.08,3.14-4.88,.07-.23,.31-.35,.54-.28,.23,.07,.35,.31,.28,.54Zm-6.98-3.1c-.08-.02-.96-1.52-2.17-.65-.52,.37-1.04,2-1.24,4.83-.06,.83-.03,2.01,.57,2.66,.82,.9,1.64-1.85,1.77-2.35,.45-1.75,1.12-4.48,1.08-4.49Z"/>
        <path class="cls-5" d="M167.75,55s-1.31,.88-2.93,2.19c-.02,.87-.05,1.74-.08,2.6-.1,3.43-1.02,9.97-5.67,8.73-2.07-.56-2.29-2.81-1.65-4.54,.79-2.16,2.58-3.85,4.23-5.37-.04-1.18-.11-2.38-.15-3.58-.01,.05-.01-.13-.01-.37-.41,1.41-1.26,3.88-1.69,4.55-.65,1.02-1.45,1.59-2.7,1.61-1.51,.02-2.86-1.92-2.85-4.69,0-1.59,.28-4.46,1.79-6.14,.92-1.03,2.46-1.4,3.59-1.15,.77,.17,1.45,.71,1.75,1.05,.09-.19,.19-.34,.29-.47,.78-1.06,2.81-.9,2.98,.7,.2,1.93,.23,3.9,.2,5.86,1.32-.98,2.3-1.62,2.43-1.7,.2-.13,.47-.08,.6,.12,.13,.2,.08,.47-.12,.6Zm-7.03-3.12c-.08-.02-.96-1.52-2.17-.65-.52,.37-1.04,2-1.24,4.83-.06,.83-.03,2.01,.57,2.66,.82,.9,1.64-1.85,1.77-2.35,.45-1.75,1.12-4.48,1.08-4.49Zm.97,8.07c-.78,.77-1.53,1.58-2.16,2.41-.39,.52-.68,1.14-.82,1.77-.19,.86-.2,2.53,1.17,2.14,1.5-.42,1.56-2.51,1.71-3.75,.1-.85,.11-1.71,.09-2.57Z"/>
        <path class="cls-5" d="M180.42,54.72c-.87,2.79-2.12,5.9-4.16,5.9-.14,0-1.11,0-1.69-.69-.69-.81-1-1.8-1.11-3.68-.2,.94-.43,1.87-.95,2.7-.65,1.02-1.45,1.59-2.7,1.61-1.51,.02-2.86-1.92-2.85-4.69,0-1.59,.28-4.46,1.79-6.14,.92-1.03,2.46-1.4,3.59-1.15,.77,.17,1.45,.71,1.75,1.05,.3-.61,.68-.88,1.09-1.01,.45-.14,1.57,.09,1.73,1.08,.24,1.43-.16,3.01-.59,6.77-.04,.38-.53,2.67,.13,2.88,.96,.3,1.95-1.08,3.14-4.88,.07-.23,.31-.35,.54-.28,.23,.07,.35,.31,.28,.54Zm-6.98-3.1c-.08-.02-.96-1.52-2.17-.65-.52,.37-1.04,2-1.24,4.83-.06,.83-.03,2.01,.57,2.66,.82,.9,1.64-1.85,1.77-2.35,.45-1.75,1.12-4.48,1.08-4.49Z"/>
        <path class="cls-5" d="M186.75,54.77c-.87,2.79-2.12,5.9-4.15,5.9-.14,0-1.45,.08-2.03-.56-.57-.63-1.1-1.17-1.1-4.02,0-1.9,.3-4.49,.73-5.83,.33-1.04,.8-1.42,1.31-1.59,.45-.14,1.57,.09,1.73,1.08,.24,1.43-.16,3.01-.59,6.77-.04,.38-.53,2.67,.13,2.88,.96,.3,1.95-1.08,3.14-4.88,.07-.23,.31-.35,.54-.28,.23,.07,.36,.31,.28,.54Zm-6.56-7.82c-.16-.55-.03-1.16,.39-1.63,.6-.64,1.59-.84,2.36-.4,.67,.39,1.07,1.23,.86,1.99-.36,1.33-2.05,1.81-3.08,.89-.27-.24-.45-.54-.54-.86Z"/>
      </g>
      <g>
        <path class="cls-1" d="M203.36,45.85c-.46,.39-1.06,.59-1.64,.7-1.22,.23-2.48,.12-3.71,.06-.08,0-.16,0-.24-.01,.04,.24,.06,.48,.07,.69,.08,2.68,.11,5.46-.2,8.12-.25,2.22-.24,4.54-.76,6.71-.22,.93-1.5,.63-1.59-.21-.44-4.11-.72-8.38-.66-12.52,0-.6,0-1.35,.09-2.06,.04-.3,.11-.6,.2-.88-.34,0-.68-.01-1.02-.01-.72,0-1.45,.04-2.16,.15-.71,.11-1.39,.34-2.11,.41-1.01,.09-1.22-1.28-.49-1.76,1.01-.66,2.42-.78,3.6-.88,1.21-.11,2.43-.07,3.65-.02,1.67,.06,3.28,.21,4.95,.12,.39-.02,.79-.03,1.14-.21,.3-.15,.52-.44,.87-.49,.35-.04,.72,.28,.76,.62,.05,.54-.36,1.12-.74,1.45Z"/>
        <path class="cls-1" d="M208.98,56.8c-.65,2.08-1.58,4.4-3.1,4.4-.11,0-1.33,.04-1.76-.47-.66-.78-.63-1.32-.62-2.28,.01-1.08,.21-2.8,.34-3.87-.02,.01-.05,.03-.07,.04-.59,.39-1.38,.58-2.03,.48-.15,.54-.31,1.12-.49,1.69-.04,.14-.17,.23-.31,.23-.03,0-.06,0-.1-.01-.17-.05-.26-.23-.21-.4,.18-.56,.34-1.14,.49-1.69-.49-.27-.78-.8-.65-1.64,.29-1.85,2.14-2.37,1.79-.24-.02,.13,.06,.22,.17,.27,.61,.29,1.3,0,2-.64,.38-.34,1.31-.64,1.77,.04,.51,.77,.22,1.93,.1,2.77-.17,1.23-.36,2.45-.54,3.67-.04,.29-.13,.97,.26,1.09,.72,.22,1.46-.8,2.34-3.64,.05-.17,.23-.26,.4-.21,.17,.05,.26,.23,.21,.4Z"/>
        <path class="cls-1" d="M218.32,56.76c-.65,2.08-1.58,4.4-3.1,4.4-.11,0-.83,0-1.26-.51-.51-.61-.75-1.34-.83-2.74-.15,.7-.32,1.39-.71,2.01-.48,.76-1.08,1.19-2.01,1.2-1.13,.01-2.13-1.43-2.13-3.5,0-1.19,.21-3.33,1.33-4.57,.69-.77,1.83-1.04,2.67-.85,.58,.13,1.08,.53,1.3,.78,.23-.46,.51-.66,.81-.75,.33-.11,1.17,.06,1.29,.8,.18,1.07-.12,2.25-.44,5.04-.03,.29-.39,1.99,.1,2.14,.72,.22,1.46-.8,2.34-3.64,.05-.17,.23-.26,.4-.21,.17,.05,.26,.23,.21,.4Zm-5.2-2.31c-.06-.01-.72-1.13-1.62-.48-.39,.28-.77,1.49-.93,3.6-.05,.62-.02,1.5,.42,1.98,.61,.67,1.23-1.38,1.32-1.75,.34-1.3,.84-3.34,.8-3.35Z"/>
        <path class="cls-1" d="M225.51,56.91c-.55,.62-1.17,1.55-2.35,1.34-.15-.03-.38-.11-.48-.19-.17,.67-.41,1.4-.77,2-.46,.76-1.46,1.57-2.37,1.04-.8-.47-1.14-1.52-1.37-2.36-.27-.95-.53-2.22-.62-3.21-.07-.69-.22-1.49-.04-2.17,.06-.24,.17-.46,.35-.64,.36-.36,1.07-.58,1.48-.19,.31,.29,.34,.8,.39,1.2,.1,.82,.13,1.64,.14,2.46,.02,.88,.28,2.84,.43,3.14,.36,.74,.72,.33,1.12-.7,.31-.79,.25-1.35,.25-1.37-.03-.05-.05-.1-.07-.15-.35-.81-.5-1.85-.49-2.72,.01-.85,.23-1.89,1.22-2.12,.21-.05,.46,0,.6,.17,.13,.15,.15,.35,.17,.54,.13,1.27,.08,2.55-.15,3.81-.04,.23-.07,.38-.12,.62,0,.02,.11,.12,.12,.13,.07,.05,.16,.1,.24,.13,.16,.06,.32,.07,.49,.02,.31-.09,.57-.34,.79-.56,.2-.2,.38-.42,.57-.63,.12-.13,.32-.15,.46-.03,.13,.12,.14,.32,.03,.45Z"/>
        <path class="cls-1" d="M232.53,56.8c-.18,.59-.38,1.17-.62,1.74-.29,.71-.63,1.46-1.18,2.01-.81,.81-2.18,.97-3.24,.64-1.48-.46-2.43-2.07-2.59-3.52-.22-1.93,.65-5.06,3-5.38,2.18-.29,2.73,2.29,2.18,3.9-.26,.76-.8,1.44-1.64,1.57-.4,.06-.78-.03-1.05-.18,.02,.24,.09,.5,.12,.68,0,.03,.01,.06,.02,.09,.15,.63,.52,1.28,1.07,1.64,.47,.3,1.12,.27,1.59-.02,.41-.25,.65-.7,.85-1.12,.35-.72,.62-1.49,.85-2.26,.05-.17,.23-.26,.4-.21,.17,.05,.26,.23,.21,.4Zm-5.21,.01c1.18,.06,1.9-.94,1.73-2.05-.08-.54-.46-1.17-1.02-.63-.64,.62-.72,1.84-.72,2.68Z"/>
        <path class="cls-1" d="M238.7,56.8c-.06,.2-.13,.39-.19,.59-.34,1.02-.73,2.08-1.41,2.93-.26,.33-.58,.63-.98,.78-.5,.19-1.14,.13-1.63-.06-.84-.33-1.44-1.07-1.84-1.85-.41-.79-.66-1.68-.74-2.57-.05-.55-.08-1.11-.09-1.67-.05-2.49,.05-4.99,.53-7.44,.24-1.24,.7-2.76,2.11-3.09,1.17-.27,1.96,.95,2.19,1.93,.34,1.4,.11,2.96-.14,4.36-.27,1.48-.56,2.94-1.13,4.34-.25,.62-.53,1.32-.9,1.93,0,.02,0,.04,0,.06,.04,.37,.06,.75,.12,1.12,.08,.61,.22,1.54,.93,1.73,.65,.17,1.4-.39,1.67-.95,.11-.22,.2-.44,.3-.67,.22-.54,.41-1.09,.59-1.65,.05-.17,.23-.26,.4-.21,.17,.05,.26,.23,.21,.4Zm-4.23-2c.37-1.2,.64-2.43,.76-3.68,.1-1.02,.15-2.1-.04-3.11-.02-.12-.05-.25-.09-.38-.45,2.07-.55,4.3-.66,6.39-.02,.32-.03,.64-.04,.97,.02-.06,.04-.12,.06-.18Z"/>
        <path class="cls-1" d="M245.99,56.75c-.03,.17-.2,.29-.38,.26-.63-.12-1.28-.16-1.92-.1-.15,.01-.37,.03-.64,.08,.39,.31,.7,.7,.82,1.2,.36,1.48-1.02,2.97-2.39,3.28-.58,.13-1.18,.1-1.72-.09-.21-.07-.4-.18-.58-.32-.39-.31-.63-.78-.66-1.28-.03-.58,.3-1.05,.67-1.47,.04-.04,.4-.39,.43-.38-1.91-.82-2.53-2.97-.9-4.72,.93-1.01,2.99-1.33,4.17-.68,1.33,.73,1.19,2.71-.41,3.18-.16,.05-.39-.13-.27-.27,.49-.59,.38-1.6-.34-1.76-.47-.1-.87-.01-1.26,.31-.49,.4-.48,1.36,.13,1.74,.47,.29,1.01,.5,1.52,.75,.61-.17,1.11-.21,1.37-.23,.7-.06,1.4-.02,2.09,.11,.17,.03,.29,.2,.26,.38Zm-4.54,2.53c0-.41-.57-.68-1.3-1-.36,.32-.6,.69-.64,.75-.04,.07-.06,.14-.06,.23,0,.22,.15,.42,.35,.55,.45,.29,1.04,.31,1.44-.09,.06-.06,.21-.22,.22-.45Z"/>
      </g>
    </g>
    <g>
      <path class="cls-4" d="M176.18,71.19s-.04,.06-.05,.09c-.39,.61-1.08,.88-1.77,.86-.02,.32-.05,.64-.09,.97-.02,.14-.18,.26-.32,.19-.16-.08-.16-.35-.19-.5-.04-.17-.07-.34-.09-.51-.01-.09-.02-.18-.03-.27-.23-.07-.56-.19-.5-.41,.04-.16,.28-.2,.46-.2,0-.05,0-.11,0-.16,0-.37,0-.64,.03-.96,.02-.21,.03-.39,.05-.52-.02-.01-.09-.04-.13-.08,0,0-.01-.01-.02-.02-.01-.02,0-.05,0-.08,.02-.08,.07-.16,.12-.23,.08-.1,.19-.17,.31-.18,.43-.03,.48,.66,.47,.95-.01,.48-.03,.95-.05,1.43,0,0,.02,0,.02,0,.34-.07,.59-.21,.83-.46,.37-.4,.49-1.05,.22-1.54-.33-.58-1.07-.82-1.67-.53-.3,.15-.48,.39-.55,.72-.04,.16-.03,.32-.02,.48,0,.1,.06,.22,0,.32-.06,.12-.18,.05-.22-.04-.12-.24-.14-.65-.09-.9,.09-.39,.33-.77,.66-1,.71-.49,1.79-.31,2.36,.3,.57,.61,.66,1.58,.25,2.31Z"/>
      <path class="cls-4" d="M178.45,71.74c-.02,.05-.03,.1-.05,.16-.09,.27-.19,.55-.37,.78-.07,.09-.15,.17-.26,.21-.13,.05-.3,.03-.43-.02-.22-.09-.38-.28-.49-.49-.11-.21-.18-.45-.2-.68-.01-.15-.02-.29-.02-.44-.01-.66,.01-1.32,.14-1.97,.06-.33,.19-.73,.56-.82,.31-.07,.52,.25,.58,.51,.09,.37,.03,.78-.04,1.15-.07,.39-.15,.78-.3,1.15-.07,.16-.14,.35-.24,.51,0,0,0,.01,0,.02,.01,.1,.02,.2,.03,.3,.02,.16,.06,.41,.25,.46,.17,.05,.37-.1,.44-.25,.03-.06,.05-.12,.08-.18,.06-.14,.11-.29,.16-.44,.01-.05,.06-.07,.11-.06s.07,.06,.06,.11Zm-1.12-.53c.1-.32,.17-.64,.2-.98,.03-.27,.04-.56-.01-.82,0-.03-.01-.07-.02-.1-.12,.55-.15,1.14-.17,1.69,0,.08,0,.17,0,.26,0-.02,.01-.03,.02-.05Z"/>
      <path class="cls-4" d="M180.92,71.73c-.17,.55-.42,1.17-.82,1.17-.03,0-.22,0-.33-.14-.14-.16-.2-.36-.22-.73-.04,.19-.08,.37-.19,.53-.13,.2-.29,.31-.53,.32-.3,0-.57-.38-.56-.93,0-.31,.06-.88,.35-1.21,.18-.2,.48-.28,.71-.23,.15,.03,.29,.14,.35,.21,.06-.12,.13-.17,.21-.2,.09-.03,.31,.02,.34,.21,.05,.28-.03,.6-.12,1.34,0,.08-.1,.53,.03,.57,.19,.06,.39-.21,.62-.96,.01-.05,.06-.07,.11-.06,.05,.01,.07,.06,.06,.11Zm-1.38-.61s-.19-.3-.43-.13c-.1,.07-.2,.4-.25,.95-.01,.16,0,.4,.11,.53,.16,.18,.32-.37,.35-.46,.09-.35,.22-.88,.21-.89Z"/>
      <path class="cls-4" d="M183.41,71.73c-.17,.55-.4,1.17-.8,1.17-.03,0-.29,.02-.4-.11-.17-.21-.21-.49-.16-1.11,.02-.22,.12-.81,0-.7-.1,.1-.17,.24-.22,.36-.08,.18-.15,.36-.22,.55-.07,.19-.13,.37-.19,.56-.03,.08-.12,.45-.35,.42-.27-.03-.32-.43-.34-.69-.02-.25,0-.33,0-.58,0-.21,.03-.47,.29-.47,.16,0,.35,.15,.33,.34-.01,.13-.01,.25,0,.37v.16c.12-.35,.29-.79,.47-1.1,.18-.3,.36-.41,.55-.41,.09,0,.31,.06,.37,.25,.09,.27-.03,.6-.12,1.34,0,.08-.1,.53,.03,.57,.19,.06,.36-.22,.6-.97,.01-.04,.06-.07,.11-.06,.05,.01,.07,.06,.06,.11Z"/>
      <path class="cls-4" d="M185.91,71.73c-.17,.55-.4,1.17-.8,1.17-.03,0-.29,.02-.4-.11-.17-.21-.21-.49-.16-1.11,.02-.22,.12-.81,0-.7-.1,.1-.17,.24-.22,.36-.08,.18-.15,.36-.22,.55-.07,.19-.13,.37-.19,.56-.03,.08-.12,.45-.35,.42-.27-.03-.32-.43-.34-.69-.02-.25,0-.33,0-.58,0-.21,.03-.47,.29-.47,.16,0,.35,.15,.33,.34-.01,.13-.01,.25,0,.37v.16c.12-.35,.29-.79,.47-1.1,.18-.3,.36-.41,.55-.41,.09,0,.31,.06,.37,.25,.09,.27-.03,.6-.12,1.34,0,.08-.1,.53,.03,.57,.19,.06,.36-.22,.6-.97,.01-.04,.06-.07,.11-.06,.05,.01,.07,.06,.06,.11Z"/>
      <path class="cls-4" d="M187.16,71.74c-.17,.55-.42,1.17-.82,1.17-.03,0-.29,.02-.4-.11-.11-.12-.22-.23-.22-.79,0-.38,.06-.89,.14-1.15,.06-.21,.16-.28,.26-.31,.09-.03,.31,.02,.34,.21,.05,.28-.03,.6-.12,1.34,0,.08-.1,.53,.03,.57,.19,.06,.39-.21,.62-.96,.01-.05,.06-.07,.11-.06,.04,.01,.07,.06,.06,.11Zm-1.3-1.54c-.03-.11,0-.23,.08-.32,.12-.13,.31-.17,.47-.08,.13,.08,.21,.24,.17,.39-.07,.26-.4,.36-.61,.18-.05-.05-.09-.11-.11-.17Z"/>
      <path class="cls-4" d="M189.65,71.73c-.17,.55-.4,1.17-.8,1.17-.03,0-.29,.02-.4-.11-.17-.21-.21-.49-.16-1.11,.02-.22,.12-.81,0-.7-.1,.1-.17,.24-.22,.36-.08,.18-.15,.36-.22,.55-.07,.19-.13,.37-.19,.56-.03,.08-.12,.45-.35,.42-.27-.03-.32-.43-.34-.69-.02-.25,0-.33,0-.58,0-.21,.03-.47,.29-.47,.16,0,.35,.15,.33,.34-.01,.13-.01,.25,0,.37v.16c.12-.35,.29-.79,.47-1.1,.18-.3,.36-.41,.55-.41,.09,0,.31,.06,.37,.25,.09,.27-.03,.6-.12,1.34,0,.08-.1,.53,.03,.57,.19,.06,.36-.22,.6-.97,.01-.04,.06-.07,.11-.06,.05,.01,.07,.06,.06,.11Z"/>
      <path class="cls-4" d="M192.13,71.79s-.26,.17-.58,.43c0,.17-.01,.34-.02,.51-.02,.68-.2,1.97-1.12,1.72-.41-.11-.45-.55-.33-.9,.16-.43,.51-.76,.84-1.06,0-.23-.02-.47-.03-.71,0,.01,0-.03,0-.07-.08,.28-.25,.77-.33,.9-.13,.2-.29,.31-.53,.32-.3,0-.57-.38-.56-.93,0-.31,.06-.88,.35-1.21,.18-.2,.48-.28,.71-.23,.15,.03,.29,.14,.35,.21,.02-.04,.04-.07,.06-.09,.15-.21,.55-.18,.59,.14,.04,.38,.05,.77,.04,1.16,.26-.19,.45-.32,.48-.34,.04-.03,.09-.02,.12,.02,.03,.04,.02,.09-.02,.12Zm-1.39-.62s-.19-.3-.43-.13c-.1,.07-.2,.4-.25,.95-.01,.16,0,.4,.11,.53,.16,.18,.32-.37,.35-.46,.09-.35,.22-.88,.21-.89Zm.19,1.59c-.15,.15-.3,.31-.43,.48-.08,.1-.14,.22-.16,.35-.04,.17-.04,.5,.23,.42,.3-.08,.31-.49,.34-.74,.02-.17,.02-.34,.02-.51Z"/>
      <path class="cls-4" d="M196.17,71.73c-.17,.55-.42,1.17-.82,1.17-.03,0-.22,0-.33-.14-.14-.16-.2-.36-.22-.73-.04,.19-.08,.37-.19,.53-.13,.2-.29,.31-.53,.32-.3,0-.57-.38-.56-.93,0-.31,.06-.88,.35-1.21,.18-.2,.48-.28,.71-.23,.15,.03,.29,.14,.35,.21,.06-.12,.13-.17,.21-.2,.09-.03,.31,.02,.34,.21,.05,.28-.03,.6-.12,1.34,0,.08-.1,.53,.03,.57,.19,.06,.39-.21,.62-.96,.01-.05,.06-.07,.11-.06,.05,.01,.07,.06,.06,.11Zm-1.38-.61s-.19-.3-.43-.13c-.1,.07-.2,.4-.25,.95-.01,.16,0,.4,.11,.53,.16,.18,.32-.37,.35-.46,.09-.35,.22-.88,.21-.89Z"/>
      <path class="cls-4" d="M199.03,71.74c-.17,.55-.42,1.17-.82,1.17-.03,0-.33,.02-.46-.13-.18-.21-.21-.47-.21-1.09,0-.19,0-.56,.01-.92-.1,0-.2-.01-.3-.03-.22-.02-.21-.32,.02-.34,.1,0,.2-.01,.3-.02,.01-.2,.02-.31,.04-.4,.06-.21,.18-.27,.28-.3,.09-.03,.31,.02,.34,.21,.02,.1,0,.23,0,.5,.11,0,.22,.01,.32,.03,.22,.02,.21,.32-.02,.34-.11,0-.22,.01-.33,.02-.03,.43-.07,.92-.09,1.31,0,.08,0,.53,.13,.57,.19,.06,.39-.21,.62-.96,.01-.05,.06-.07,.11-.06,.04,.01,.07,.06,.06,.11Z"/>
      <path class="cls-4" d="M201.08,71.74c-.17,.55-.42,1.17-.82,1.17-.03,0-.35,.01-.47-.12-.17-.21-.17-.35-.16-.6,0-.29,.06-.74,.09-1.02,0,0-.01,0-.02,.01-.16,.1-.36,.15-.54,.13-.04,.14-.08,.3-.13,.45-.01,.04-.05,.06-.08,.06,0,0-.02,0-.03,0-.04-.01-.07-.06-.06-.11,.05-.15,.09-.3,.13-.45-.13-.07-.21-.21-.17-.44,.08-.49,.57-.63,.48-.06,0,.03,.02,.06,.05,.07,.16,.08,.34,0,.53-.17,.1-.09,.35-.17,.47,.01,.14,.2,.06,.51,.03,.73-.04,.33-.1,.65-.14,.97-.01,.08-.04,.26,.07,.29,.19,.06,.39-.21,.62-.96,.01-.05,.06-.07,.11-.06s.07,.06,.06,.11Z"/>
      <path class="cls-4" d="M202.34,71.74c-.17,.55-.42,1.17-.82,1.17-.03,0-.29,.02-.4-.11-.11-.12-.22-.23-.22-.79,0-.38,.06-.89,.14-1.15,.06-.21,.16-.28,.26-.31,.09-.03,.31,.02,.34,.21,.05,.28-.03,.6-.12,1.34,0,.08-.1,.53,.03,.57,.19,.06,.39-.21,.62-.96,.01-.05,.06-.07,.11-.06,.04,.01,.07,.06,.06,.11Zm-1.3-1.54c-.03-.11,0-.23,.08-.32,.12-.13,.31-.17,.47-.08,.13,.08,.21,.24,.17,.39-.07,.26-.4,.36-.61,.18-.05-.05-.09-.11-.11-.17Z"/>
      <path class="cls-4" d="M204.85,71.74s-.05,.08-.1,.07c0,0-.23-.03-.52,0-.05,.29-.17,.58-.37,.79-.18,.2-.45,.31-.72,.29-.1,0-.2-.04-.28-.09,0,0,0,.01,0,.02-.02,.33-.04,.64-.09,.97-.04,.24-.05,.65-.31,.77-.08,.04-.14,.02-.21-.03-.22-.17-.15-.59-.15-.83,0-.31,.02-.61,.03-.92,.02-.63,.03-1.26,.01-1.89-.01-.45,.68-.44,.71,0,0,.15,0,.6,0,.75,.04-.18,.17-.65,.27-.8,.13-.2,.22-.31,.47-.31,.3,0,.5,.22,.59,.49,.06,.2,.09,.41,.07,.62,.29-.02,.5,.01,.52,.01,.05,0,.08,.05,.07,.1Zm-1.87,.36s0,.03,0,.04c.15-.15,.32-.25,.49-.33,.03-.15,.04-.3,.02-.44,0-.06-.05-.35-.16-.32-.06,.02-.1,.13-.12,.18-.03,.07-.04,.14-.06,.22-.06,.22-.1,.44-.16,.65Zm.43-.07c-.14,.08-.28,.18-.39,.31,.09,.05,.13,.08,.23,0,.09-.08,.13-.19,.16-.31Z"/>
      <path class="cls-4" d="M205.65,68.9c.11-.19,.26-.35,.46-.46,.2-.11,.43-.17,.69-.17,.45,0,.8,.11,1.06,.32,.25,.21,.38,.51,.38,.89,0,.18-.03,.34-.1,.47-.06,.14-.14,.26-.24,.38-.1,.12-.2,.22-.32,.33-.11,.1-.22,.21-.31,.32-.1,.11-.18,.23-.24,.35-.03,.08-.06,.15-.09,.22-.03,.07-.04,.14-.03,.22s.04,.16,.1,.25l-.05,.04c-.14-.1-.24-.21-.3-.33-.06-.12-.09-.25-.09-.39,0-.13,.04-.25,.1-.36,.06-.11,.14-.22,.23-.32,.09-.11,.18-.22,.28-.33,.09-.11,.17-.24,.23-.38,.06-.14,.09-.29,.09-.47,0-.31-.07-.54-.22-.71s-.34-.25-.59-.25c-.27,0-.48,.09-.63,.28-.16,.19-.23,.46-.23,.8h-.07l-.13-.7Zm1.22,4.45c-.1,0-.19-.04-.27-.11-.08-.07-.11-.16-.11-.27s.04-.2,.11-.27c.08-.07,.16-.11,.27-.11s.2,.04,.27,.11c.07,.07,.11,.16,.11,.27s-.04,.2-.11,.27c-.07,.07-.16,.11-.27,.11Z"/>
      <path class="cls-4" d="M211.97,69.2c-.08-.35-.63-.27-.86-.19-.29,.11-.59,.3-.77,.56-.47,.65,.32,1.14,.84,1.4,.58,.29,1.26,.73,1.21,1.48-.02,.38-.25,.77-.63,.88-.43,.13-.91-.09-1.25-.34-.28-.2-.53-.47-.67-.79-.08-.19,.22-.34,.34-.2,.29,.34,.8,.89,1.3,.77,.31-.08,.2-.44,.07-.63-.21-.29-.61-.44-.91-.61-.32-.17-.65-.36-.89-.64-.55-.63-.43-1.51,.18-2.05,.54-.48,1.42-.77,2.11-.42,.3,.15,.49,.47,.44,.81-.03,.21-.16,.39-.32,.51-.11,.09-.24,.16-.37,.22-.1,.05-.25,.13-.36,.07-.02-.01-.04-.03-.05-.05-.08-.19,.29-.35,.4-.43,.11-.08,.22-.21,.19-.36Z"/>
      <path class="cls-4" d="M215.4,71.74s-.05,.08-.1,.07c0,0-.23-.03-.52,0-.05,.29-.17,.58-.37,.79-.18,.2-.45,.31-.72,.29-.1,0-.2-.04-.28-.09,0,0,0,.01,0,.02-.02,.33-.04,.64-.09,.97-.04,.24-.05,.65-.31,.77-.08,.04-.14,.02-.21-.03-.22-.17-.15-.59-.15-.83,0-.31,.02-.61,.03-.92,.02-.63,.03-1.26,.01-1.89-.01-.45,.68-.44,.71,0,0,.15,0,.6,0,.75,.04-.18,.17-.65,.27-.8,.13-.2,.22-.31,.47-.31,.3,0,.5,.22,.59,.49,.06,.2,.09,.41,.07,.62,.29-.02,.5,.01,.52,.01,.05,0,.08,.05,.07,.1Zm-1.87,.36s0,.03,0,.04c.15-.15,.32-.25,.49-.33,.03-.15,.04-.3,.02-.44,0-.06-.05-.35-.16-.32-.06,.02-.1,.13-.12,.18-.03,.07-.04,.14-.06,.22-.06,.22-.1,.44-.16,.65Zm.43-.07c-.14,.08-.28,.18-.39,.31,.09,.05,.13,.08,.23,0,.09-.08,.13-.19,.16-.31Z"/>
      <path class="cls-4" d="M217.24,71.74c-.05,.16-.1,.31-.16,.46-.08,.19-.17,.39-.31,.53-.22,.22-.58,.26-.86,.17-.39-.12-.64-.55-.69-.93-.06-.51,.17-1.34,.79-1.43,.58-.08,.72,.61,.58,1.03-.07,.2-.21,.38-.43,.42-.11,.02-.21,0-.28-.05,0,.06,.02,.13,.03,.18,0,0,0,.01,0,.02,.04,.17,.14,.34,.28,.43,.13,.08,.3,.07,.42,0,.11-.07,.17-.19,.23-.3,.09-.19,.16-.39,.23-.6,.01-.05,.06-.07,.11-.06s.07,.06,.06,.11Zm-1.38,0c.31,.02,.5-.25,.46-.54-.02-.14-.12-.31-.27-.17-.17,.17-.19,.49-.19,.71Z"/>
      <path class="cls-4" d="M219.71,71.73c-.17,.55-.42,1.17-.82,1.17-.03,0-.22,0-.33-.14-.14-.16-.2-.36-.22-.73-.04,.19-.08,.37-.19,.53-.13,.2-.29,.31-.53,.32-.3,0-.57-.38-.56-.93,0-.31,.06-.88,.35-1.21,.18-.2,.48-.28,.71-.23,.15,.03,.29,.14,.35,.21,.06-.12,.13-.17,.21-.2,.09-.03,.31,.02,.34,.21,.05,.28-.03,.6-.12,1.34,0,.08-.1,.53,.03,.57,.19,.06,.39-.21,.62-.96,.01-.05,.06-.07,.11-.06,.05,.01,.07,.06,.06,.11Zm-1.38-.61s-.19-.3-.43-.13c-.1,.07-.2,.4-.25,.95-.01,.16,0,.4,.11,.53,.16,.18,.32-.37,.35-.46,.09-.35,.22-.88,.21-.89Z"/>
      <path class="cls-4" d="M222.03,71.74c-.17,.55-.42,1.17-.82,1.17-.03,0-.48,.09-.73-.18-.13-.14-.22-.3-.29-.49-.01,.06-.04,.25-.06,.36-.03,.13-.14,.31-.29,.33-.34,.04-.32-.49-.31-.7,.02-.44,.03-.89,.04-1.33,.02-.71,.03-1.42,.01-2.13-.01-.45,.69-.44,.7,0,.03,.72,.03,1.44,0,2.17,0,.12-.01,.25-.02,.37,.03-.05,.07-.1,.11-.15,.18-.23,.68-.82,1.03-.55,.32,.23-.07,.65-.26,.79-.16,.13-.34,.24-.53,.33,0,0,0,.02,0,.02,.13,.67,.49,.86,.62,.9,.19,.06,.39-.21,.62-.96,.01-.05,.06-.07,.11-.06,.05,.01,.07,.06,.06,.11Zm-1.49-.36c.37-.2,.8-.47,.7-.58-.1-.1-.42,.24-.48,.3-.08,.09-.15,.18-.22,.28Z"/>
      <path class="cls-4" d="M224.89,71.74c-.17,.55-.42,1.17-.82,1.17-.03,0-.33,.02-.46-.13-.18-.21-.21-.47-.21-1.09,0-.19,0-.56,.01-.92-.1,0-.2-.01-.3-.03-.22-.02-.21-.32,.02-.34,.1,0,.2-.01,.3-.02,.01-.2,.02-.31,.04-.4,.06-.21,.18-.27,.28-.3,.09-.03,.31,.02,.34,.21,.02,.1,0,.23,0,.5,.11,0,.22,.01,.32,.03,.22,.02,.21,.32-.02,.34-.11,0-.22,.01-.33,.02-.03,.43-.07,.92-.09,1.31,0,.08,0,.53,.13,.57,.19,.06,.39-.21,.62-.96,.01-.05,.06-.07,.11-.06,.04,.01,.07,.06,.06,.11Z"/>
      <path class="cls-4" d="M226.85,71.65s.04,.09,0,.12c-.09,.1-.31,.31-.65,.37-.09,.34-.29,.75-.67,.81-.38,.05-.74-.29-.82-.65-.08-.38,0-.81,.2-1.15,0,0,0,0,0-.01,.01-.26,.18-.56,.51-.64,.58-.15,.79,.57,.82,1.03,.01,.15,0,.29-.02,.44,.24-.07,.41-.23,.48-.3,.03-.04,.09-.04,.12,0Zm-1.01,.51c-.15-.02-.33-.1-.46-.18-.02,.07-.04,.21-.02,.27,.05,.19,.17,.25,.34,.13,.09-.06,.15-.22,.15-.22Zm-.46-1.13c.05,.03,.1,.07,.13,.13,.07,.12,.05,.25,0,.37-.03,.07-.06,.14-.07,.22,.03,.02,.06,.05,.09,.07,.11,.08,.25,.13,.38,.16,.06-.18,.05-.39,.02-.56-.02-.12-.06-.24-.13-.33-.08-.09-.2-.15-.32-.11-.04,.01-.07,.03-.1,.06Z"/>
      <path class="cls-4" d="M230.86,71.74c-.17,.55-.42,1.17-.82,1.17-.03,0-.22,0-.33-.14-.15-.18-.21-.41-.23-.89-.05,.19-.1,.37-.12,.43-.09,.27-.21,.58-.55,.57-.4,0-.53-.46-.57-.79-.04-.4,0-.94,.08-1.34,.03-.17,.25-.26,.4-.22,.19,.05,.23,.23,.2,.4-.03,.2-.07,.55-.09,.75,0,.12-.05,.91,.24,.7,.07-.05,.11-.13,.14-.21,.05-.11,.08-.23,.11-.35,.08-.26,.13-.52,.2-.78,.05-.19,.07-.41,.27-.51,.01,0,.03-.01,.04-.02,.09-.03,.31,.02,.34,.21,.05,.28-.03,.6-.12,1.34,0,.08-.1,.53,.03,.57,.19,.06,.39-.21,.62-.96,.01-.05,.06-.07,.11-.06,.04,.01,.07,.06,.06,.11Z"/>
      <path class="cls-4" d="M232.79,71.73s-.05,.08-.1,.07c-.17-.03-.34-.04-.51-.03-.04,0-.1,0-.17,.02,.1,.08,.18,.19,.22,.32,.1,.39-.27,.79-.63,.87-.15,.03-.31,.03-.45-.02-.06-.02-.11-.05-.15-.09-.1-.08-.17-.21-.17-.34,0-.15,.08-.28,.18-.39,0-.01,.11-.1,.11-.1-.51-.22-.67-.79-.24-1.25,.25-.27,.79-.35,1.11-.18,.35,.19,.32,.72-.11,.84-.04,.01-.1-.04-.07-.07,.13-.16,.1-.43-.09-.47-.12-.03-.23,0-.33,.08-.13,.11-.13,.36,.03,.46,.13,.08,.27,.13,.4,.2,.16-.04,.29-.05,.36-.06,.18-.01,.37,0,.55,.03,.05,0,.08,.05,.07,.1Zm-1.2,.67c0-.11-.15-.18-.35-.27-.1,.08-.16,.18-.17,.2-.01,.02-.02,.04-.02,.06,0,.06,.04,.11,.09,.15,.12,.08,.28,.08,.38-.02,.02-.02,.06-.06,.06-.12Z"/>
      <path class="cls-4" d="M237.99,68.65c-.19,.23-.47,.36-.75,.44-.02,0-.04,.01-.06,.02-.34,.09-.7,.12-1.05,.09-.14-.01-.28-.04-.41-.06,.09,.09,.15,.22,.19,.33,.07,.23,.06,.47,.05,.71-.01,.28-.02,.56-.03,.84,.14,0,.29,0,.43-.02,.17-.01,.58-.06,.61,.2,.01,.11-.04,.2-.13,.24-.26,.12-.58,.12-.86,.12-.02,0-.05,0-.07,0-.02,.51-.05,1.03-.11,1.54-.03,.22-.36,.3-.42,.06-.14-.52-.21-1.05-.24-1.59-.06,0-.12-.01-.17-.02-.22-.03-.21-.38,0-.43,.05-.01,.11-.02,.17-.03,0-.3,0-.61,.03-.91,.01-.17,.03-.34,.07-.51-.03,0-.06,0-.1-.03,0,0-.02-.02-.02-.03,.02-.14,.02-.26,.1-.38,.05-.07,.12-.13,.21-.16-.11-.04-.21-.08-.32-.12-.14-.05-.29-.13-.43-.13-.13,0-.22,.09-.24,.22-.02,.15,.08,.28,.17,.38,.05,.06,.12,.11,.18,.16,.02,.01,.03,.02,.04,.04,.07,.08,0,.14-.08,.15-.26,.03-.53-.17-.65-.38-.13-.21-.15-.48-.02-.7,.34-.59,1.03-.21,1.51-.07,.3,.09,.63,.13,.96,.12,.01-.07,.05-.13,.13-.18,.27-.16,.53-.34,.83-.45,.15-.05,.34-.11,.49-.04,.23,.12,.15,.43,.01,.59Z"/>
      <path class="cls-4" d="M238.7,71.74c-.17,.55-.42,1.17-.82,1.17-.03,0-.29,.02-.4-.11-.11-.12-.22-.23-.22-.79,0-.38,.06-.89,.14-1.15,.06-.21,.16-.28,.26-.31,.09-.03,.31,.02,.34,.21,.05,.28-.03,.6-.12,1.34,0,.08-.1,.53,.03,.57,.19,.06,.39-.21,.62-.96,.01-.05,.06-.07,.11-.06,.04,.01,.07,.06,.06,.11Zm-1.3-1.54c-.03-.11,0-.23,.08-.32,.12-.13,.31-.17,.47-.08,.13,.08,.21,.24,.17,.39-.07,.26-.4,.36-.61,.18-.05-.05-.09-.11-.11-.17Z"/>
      <path class="cls-4" d="M240.75,71.74c-.17,.55-.42,1.17-.82,1.17-.03,0-.35,.01-.47-.12-.17-.21-.17-.35-.16-.6,0-.29,.06-.74,.09-1.02,0,0-.01,0-.02,.01-.16,.1-.36,.15-.54,.13-.04,.14-.08,.3-.13,.45-.01,.04-.05,.06-.08,.06,0,0-.02,0-.03,0-.04-.01-.07-.06-.06-.11,.05-.15,.09-.3,.13-.45-.13-.07-.21-.21-.17-.44,.08-.49,.57-.63,.48-.06,0,.03,.02,.06,.05,.07,.16,.08,.34,0,.53-.17,.1-.09,.35-.17,.47,.01,.14,.2,.06,.51,.03,.73-.04,.33-.1,.65-.14,.97-.01,.08-.04,.26,.07,.29,.19,.06,.39-.21,.62-.96,.01-.05,.06-.07,.11-.06s.07,.06,.06,.11Z"/>
      <path class="cls-4" d="M244.07,71.74c-.17,.55-.42,1.17-.82,1.17-.03,0-.33,.02-.46-.13-.18-.21-.21-.47-.21-1.09,0-.19,.04-1.01,.05-1.37,0,0,.02,.01-.02,0-.12,.56-.4,1.65-.48,1.88-.13,.38-.34,.68-.71,.76-.15,.03-.31,.03-.45-.02-.05-.02-.11-.05-.15-.09-.1-.08-.18-.2-.21-.35-.02-.13,.02-.28,.11-.29,.08-.01,.02,.07,.08,.2,.14,.32,.46,.19,.56,.09,.02-.02,.06-.06,.06-.12,0-.1-.11-.15-.18-.19-.22-.12-.46-.21-.63-.41-.08-.1-.14-.22-.15-.34-.04-.25,.07-.49,.24-.67,.25-.27,.79-.35,1.1-.18,.35,.19,.32,.72-.11,.84-.04,.01-.1-.04-.07-.07,.13-.16,.1-.43-.09-.47-.12-.03-.23,0-.33,.08-.13,.11-.13,.36,.03,.46,.13,.08,.68,.29,.77,.6,.06-.16,.36-1.42,.44-1.74-.04,0-.6-.01-.64-.02-.22-.02-.21-.32,.02-.34,.07,0,.64-.01,.71-.01,.05-.17,.1-.32,.13-.4,0,0,0,0,0,0,.06-.21,.18-.27,.28-.3,.09-.03,.31,.02,.34,.21,.02,.1,0,.23,0,.49,.11,0,.22,.02,.32,.03,.22,.02,.21,.32-.02,.34-.11,0-.22,.01-.33,.02-.03,.43-.07,1.35-.09,1.75,0,.08,0,.53,.13,.57,.19,.06,.39-.21,.62-.96,.01-.05,.06-.07,.11-.06,.05,.01,.07,.06,.06,.11Z"/>
      <path class="cls-4" d="M245.61,73.35c-.11,0-.2-.04-.27-.11-.07-.07-.11-.16-.11-.27s.04-.2,.11-.27c.07-.07,.16-.11,.27-.11s.2,.04,.27,.11c.07,.07,.11,.16,.11,.27s-.04,.2-.11,.27c-.07,.07-.16,.11-.27,.11Zm.08-1.33h-.16l-.18-1.5-.1-2.17h.71l-.1,2.17-.18,1.5Z"/>
    </g>
  </g>
  <g>
    <path class="cls-2" d="M59.31,27.43l-3.07-.04-.07,4.96,5.7,.08,.03-2.04c0-.1,0-.19-.01-.29,0-.1-.02-.19-.04-.28-.02-.09-.04-.19-.06-.28-.02-.09-.05-.18-.08-.27-.03-.09-.07-.18-.11-.26-.04-.09-.08-.17-.13-.25-.05-.08-.1-.16-.15-.23-.05-.08-.11-.15-.17-.22-.06-.07-.12-.13-.19-.2-.07-.06-.13-.12-.21-.17-.07-.05-.14-.11-.22-.15-.07-.05-.15-.09-.23-.13-.08-.04-.16-.07-.24-.1-.08-.03-.17-.05-.25-.07-.08-.02-.17-.03-.25-.05-.09,0-.17-.02-.26-.02h0Z"/>
    <path class="cls-2" d="M32.14,27.73l3.07-.04,.07,4.96-5.7,.08-.03-2.04c0-.1,0-.19,.01-.29,0-.1,.02-.19,.04-.28,.02-.09,.04-.19,.06-.28,.02-.09,.05-.18,.08-.27,.03-.09,.07-.18,.11-.26,.04-.09,.08-.17,.13-.25,.05-.08,.1-.16,.15-.23,.05-.08,.11-.15,.17-.22,.06-.07,.12-.13,.19-.2,.07-.06,.13-.12,.21-.17,.07-.05,.14-.11,.22-.15,.07-.05,.15-.09,.23-.13,.08-.04,.16-.07,.24-.1,.08-.03,.17-.05,.25-.07,.08-.02,.17-.03,.25-.05,.09,0,.17-.02,.26-.02h0Z"/>
    <g>
      <path class="cls-1" d="M26.23,48.6s3.93-10.25,20.25-10c16.32,.24,19.62,8.64,19.62,8.64v8.3s-1.17,18.53-23.75,13.05c-.84-.43-1.74-.98-2.66-1.7-2.94-2.28-4.52-5.05-5.35-6.88-.7-.55-1.6-.62-2.22-.2-.52,.35-.66,.91-.7,1.08,0,.14,0,.37,.02,.64,0,0,.18,3.99,2.39,7.79,2.27,3.92,9.42,8.95,17.99,8.78,9.09-.18,14.89-6.09,16.08-7.36,.78-.8,1.78-1.95,2.72-3.49,.48-.79,.82-1.46,.84-1.44,.03,.02-.47,1.15-2.68,5.72-2.72,2.54-3.84,4.94-5.9,6.2-2.12,1.31-7.09,5.73-15.58,4.49-4-1-6.94-2.87-8.74-4.26,0,0-7.14-2.33-10.93-10.2,0,0-1.12-1.26-1.41-7.58v-11.61Z"/>
      <path class="cls-4" d="M75.6,55.02c-1.82-.62-3.81,.37-4.43,2.19s1.03,6.87,1.09,7.09l.06,.2s.03,.04,.05,.05,.05,0,.07-.01l.17-.12c.19-.13,4.57-3.22,5.17-4.98,.62-1.82-.37-3.81-2.19-4.43Zm-.72,2.12c.65,.22,1.01,.93,.79,1.59s-.93,1.01-1.59,.79-1.01-.93-.79-1.59c.22-.65,.93-1.01,1.59-.79Z"/>
      <path class="cls-5" d="M10.85,55.68l4.58-4.56s2.01-.42,3.06-.67c.86,4.3-3.21,5.44-4.78,8.02-.91-.85-1.81-1.82-2.87-2.8Z"/>
      <path class="cls-3" d="M53.08,21.39c.17,0,.34,.03,.5,.07,.16,.04,.21,.04,.36,.12,.15,.08,.39,.02,.51,.13,.13,.11,.24,.24,.34,.37,.2,.27,.35,.57,.46,.89,.1,.32,.15,.65,.15,.99v3.67c0,.06,0,.12-.02,.17-.01,.06-.03,.11-.05,.17-.02,.05-.05,.1-.08,.15-.03,.05-.07,.09-.11,.13-.04,.04-.08,.08-.13,.11-.05,.03-.11,.02-.16,.04-.05,.02-.11-.02-.16,0-.06,.01-.1,.02-.16,.02l-.1-.02v1.11c.58,.13,1.41,.34,1.97,.49l-.09-7.52c0-.27,0-.56-.08-.81-.08-.26-.29-.45-.44-.67-.06-.1-.24-.18-.34-.25-.1-.07-.22-.18-.34-.2h-18.93c-.12,.02-.26,.13-.36,.2-.1,.07-.18,.15-.25,.25-.15,.22-.31,.4-.39,.66-.08,.26-.07,.58-.07,.85v7.88c.56-.2,1.13-.33,1.71-.49v-1.59s-.09,.05-.09,.05c-.06,0-.11,.02-.17,0-.06-.01-.12,.02-.17,0-.05-.02-.1-.05-.15-.08-.05-.03-.09-.07-.13-.11-.04-.04-.08-.09-.11-.13-.03-.05-.06-.1-.08-.15-.02-.05-.04-.11-.05-.17-.01-.06-.02-.11-.02-.17v-3.59c0-.34,.05-.67,.15-.99s.37-.57,.57-.84c.1-.14,.14-.18,.27-.29s.25-.17,.4-.25c.15-.08,.29-.1,.46-.14,.16-.04,.35-.08,.52-.08l14.74,.06h.14Z"/>
      <path class="cls-4" d="M60.62,76.44c-4.17,2.21-8.1,2.86-10.58,3.05-5.04,.38-8.79-.77-9.59-1.03-2.61-.84-4.42-1.95-5.06-2.32-5.58-3.22-8.49-8.31-8.76-14.79-.16-3.99-.11-7.99-.3-11.98-.13-2.57,.86-4.63,2.44-6.48,3.01-3.51,7.06-5.07,11.45-5.82,6.76-1.16,13.36-.58,19.65,2.33,2.41,1.12,5.1,2.87,6.09,5.47,.54,1.42,.28,2.95,.26,4.43-.03,2.17-.09,4.35-.3,6.51-.76,7.87-6.6,13.39-14.52,13.84-5.85,.33-11.03-1.19-14.8-6.02-.64-.82-1.1-1.77-1.59-2.69-.65-1.22-1.61-1.7-2.64-1.26-1.01,.44-1.27,1.46-.64,2.82,2.74,5.91,7.53,9.23,13.78,10.38,7.49,1.38,14.18-.3,19.51-6.02,5.59-5.99,4.43-14.52,4.79-22.06,.24-5.07-2.42-9.33-6.72-11.89-.32-.19-.64-.37-.92-.62-.31-.28-.55-.63-.78-.98-2.03-3.04-1.6-5.63-1.72-9.15-.11-3.23-2.05-5.12-5.24-5.12-5.7-.01-11.41-.01-17.11,0-3.82,.01-5.65,1.8-5.77,5.65-.09,2.71,.25,5.14-.83,7.69-1.04,2.45-2.72,3.89-4.4,5.83s-2.64,4.47-3.09,6.87c-.42,2.21-2.08,3.69-4.29,3.85-1.23,.09-2.47,.13-3.69,.32l-1.3,1.16c-2.07,1.96-6.15,5.85-6.15,5.85-.78,.67-.65,1.98,.12,2.68,1.51,1.37,2.48,2.41,3.99,3.78,1.16,1.05,2.11,1.4,2.92,.49l3.83-4.42,2.63-3.08s.6-4,.74-4.94c.07-.46,.3-.89,.48-1.31,0-.01,.01-.03,.02-.03,.01,0,.02,0,.04,0,.18,.07,.26,.06,.31,.22,.04,.15,0,.37,0,.53,0,.35,0,.7,0,1.06,.02,3.9-.06,7.8,.08,11.69,.16,4.3,1.23,8.04,3.21,11.22,.68,1.09,3.45,5.36,8.7,7.86,1.68,.8,3.13,1.19,4.74,1.62,1.92,.52,5.02,1.35,8.6,1.3,8.01-.1,13.77-4.5,15.25-5.67,2.5-1.96,3.98-3.89,4.43-4.5,1.98-2.66,3.01-5.23,3.55-6.97-1.32,2.32-4.58,7.29-10.85,10.62ZM35.19,22.23c.01-1.08,.57-1.63,1.71-1.63,5.84,.01,11.68,.03,17.51,0,1.23,0,1.77,.62,1.79,1.71,.05,2.41,.01,4.83,.01,7.5-7.06-1.6-14-1.7-21.03,.47,0-2.84-.02-5.45,0-8.05Zm-4.26,14.51c3.08-2.63,6.81-3.78,10.7-4.28,5.93-.76,11.77-.21,17.31,2.22,2.57,1.13,4.88,2.64,6.22,4.95-12.07-7.12-24.26-7.75-36.85-.19,.93-.98,1.7-1.93,2.62-2.71ZM13.45,57.97c-.91-.85-1.69-1.57-2.74-2.54l4.6-4.48,3.21-.76-.18,2.76-4.9,5.03Z"/>
      <path class="cls-5" d="M65.17,39.64c-12.07-7.12-24.26-7.75-36.85-.19,.93-.98,1.7-1.93,2.62-2.71,3.08-2.63,6.81-3.78,10.7-4.28,5.94-.76,11.77-.21,17.31,2.22,2.57,1.13,4.88,2.64,6.22,4.95Z"/>
      <path class="cls-4" d="M39.21,47.69c2.27-.04,4.22,1.72,4.43,4.01,.09,1.01-.23,1.82-1.29,2.08-1.03,.25-1.86-.06-2.33-1.11-.18-.4-.5-.73-.76-1.09-.26,.35-.59,.66-.77,1.05-.46,1.03-1.23,1.44-2.29,1.19-1.05-.25-1.4-1.06-1.36-2.06,.08-2.18,2.08-4.04,4.37-4.08Z"/>
      <path class="cls-4" d="M49.3,51.87c.01-2.25,2.03-4.15,4.4-4.16,2.34,0,4.35,1.95,4.34,4.21,0,.97-.37,1.68-1.36,1.89-1,.21-1.74-.16-2.2-1.12-.2-.42-.58-.76-.88-1.13-.25,.37-.55,.71-.72,1.11-.42,.98-1.14,1.38-2.16,1.18-1.08-.21-1.45-.97-1.42-1.99Z"/>
      <path class="cls-2" d="M37.52,27.7v-3.62c0-.3,.07-.56,.25-.8,.04-.06,.08-.1,.14-.14,.06-.04,.12-.06,.19-.07h15.08c.07,0,.13,.03,.19,.07,.06,.04,.1,.08,.14,.14,.17,.24,.25,.51,.25,.8v3.7c0,.06,0,.12,.02,.17,.01,.06,.03,.11,.05,.17,.02,.05,.05,.11,.08,.15,.03,.05,.07,.09,.11,.14s.09,.08,.13,.11c.05,.03,.1,.06,.15,.08,.05,.02,.11,.04,.17,.05,.06,.01,.12,.02,.17,.02s.12,0,.17-.02c.06-.01,.11-.03,.17-.05,.05-.02,.11-.05,.15-.08,.05-.03,.09-.07,.14-.11,.04-.04,.08-.09,.11-.14,.03-.05,.06-.1,.08-.15,.02-.05,.04-.11,.05-.17,.01-.06,.02-.11,.02-.17v-3.7c0-.34-.05-.67-.15-1-.11-.32-.26-.62-.46-.9-.1-.14-.22-.26-.34-.38-.13-.11-.27-.21-.42-.29-.15-.08-.31-.14-.48-.18-.16-.04-.33-.07-.5-.07h-15.08c-.17,0-.34,.03-.5,.07-.17,.04-.32,.1-.48,.18-.15,.08-.29,.17-.42,.29-.13,.11-.24,.24-.34,.38-.2,.27-.36,.57-.46,.9-.11,.32-.16,.66-.15,1v3.62c0,.06,0,.12,.02,.17,.01,.06,.03,.11,.05,.17,.02,.05,.05,.11,.08,.15,.03,.05,.07,.09,.11,.13,.04,.04,.09,.08,.14,.11,.05,.03,.1,.06,.15,.08,.05,.02,.11,.04,.17,.05,.06,.01,.12,.02,.17,.02s.12,0,.17-.02c.06-.01,.11-.03,.17-.05,.05-.02,.11-.05,.15-.08,.05-.03,.09-.07,.14-.11,.04-.04,.08-.09,.11-.13,.03-.05,.06-.1,.08-.15,.02-.05,.04-.11,.05-.17,.01-.06,.02-.12,.02-.17Z"/>
    </g>
  </g>
</svg>