<?xml version="1.0" encoding="UTF-8"?>
<svg id="Layer_1" data-name="Layer 1" xmlns="http://www.w3.org/2000/svg" viewBox="0 0 375.93 148.43">
  <defs>
    <style>
      .cls-1 {
        fill: #e9d02f;
      }

      .cls-2, .cls-3 {
        fill-rule: evenodd;
      }

      .cls-2, .cls-4 {
        fill: #04314d;
      }

      .cls-3, .cls-5 {
        fill: #0e9e34;
      }
    </style>
  </defs>
  <g>
    <g>
      <g>
        <path class="cls-5" d="M150.97,77.13c-.13,.23-.27,.46-.41,.68-2.94,4.59-8.14,6.65-13.34,6.47-.16,2.44-.37,4.87-.67,7.29-.13,1.08-1.39,1.95-2.42,1.43-1.18-.6-1.21-2.68-1.45-3.8-.27-1.28-.5-2.58-.67-3.88-.09-.67-.17-1.35-.24-2.03-1.71-.51-4.21-1.47-3.75-3.12,.33-1.18,2.08-1.54,3.49-1.5,0-.41-.01-.81,0-1.22,.01-2.82,.07-4.84,.24-7.22,.11-1.61,.25-2.96,.36-3.93-.19-.08-.7-.3-.99-.59-.05-.05-.09-.1-.13-.18-.08-.17-.06-.37,0-.58,.15-.62,.52-1.24,.9-1.74,.58-.77,1.4-1.31,2.38-1.38,3.26-.24,3.65,4.97,3.58,7.14-.11,3.59-.19,7.19-.36,10.78,.06-.01,.13-.02,.19-.03,2.58-.53,4.45-1.55,6.24-3.48,2.8-3.02,3.68-7.96,1.63-11.62-2.47-4.41-8.05-6.22-12.61-4-2.28,1.11-3.6,2.97-4.17,5.41-.28,1.23-.23,2.38-.15,3.62,.05,.73,.42,1.68,.05,2.38-.48,.9-1.36,.34-1.69-.33-.87-1.78-1.08-4.89-.66-6.77,.65-2.95,2.52-5.82,4.99-7.54,5.34-3.72,13.53-2.35,17.83,2.29,4.3,4.63,4.95,11.97,1.86,17.44Z"/>
        <path class="cls-5" d="M174.23,81.33c-1.3,4.15-3.16,8.8-6.2,8.8-.21,0-1.66,0-2.52-1.02-1.16-1.38-1.61-3.08-1.7-6.7-.4,1.41-.79,2.76-.94,3.26-.65,2.06-1.62,4.35-4.16,4.29-3.04-.06-4.02-3.49-4.27-5.97-.31-3.04-.04-7.08,.59-10.12,.26-1.26,1.92-1.94,3-1.63,1.4,.4,1.71,1.71,1.49,3.02-.25,1.51-.56,4.14-.69,5.67-.07,.89-.4,6.87,1.84,5.25,.51-.36,.79-1,1.05-1.55,.39-.84,.6-1.73,.86-2.6,.58-1.93,.97-3.92,1.47-5.87,.36-1.4,.56-3.13,2.05-3.81,.1-.05,.2-.08,.3-.12,.66-.22,2.34,.13,2.58,1.61,.36,2.14-.24,4.49-.88,10.09-.07,.57-.79,3.98,.2,4.29,1.44,.45,2.91-1.61,4.69-7.28,.11-.34,.47-.53,.81-.42,.34,.11,.53,.47,.42,.81Z"/>
        <path class="cls-5" d="M193.06,81.26c-1.3,4.15-2.99,8.86-6.02,8.86-.21,0-2.18,.16-3.05-.86-1.32-1.56-1.58-3.7-1.19-8.38,.14-1.63,.92-6.11,0-5.25-.77,.73-1.25,1.79-1.69,2.73-.62,1.35-1.14,2.76-1.64,4.16-.5,1.4-.96,2.81-1.44,4.22-.2,.59-.87,3.39-2.64,3.18-2.04-.24-2.42-3.27-2.54-5.19-.12-1.87-.05-2.53-.05-4.4,0-1.56,.23-3.56,2.22-3.56,1.22,0,2.64,1.16,2.5,2.57-.1,.96-.1,1.88-.05,2.78v1.18c.88-2.61,2.15-5.95,3.56-8.27,1.36-2.25,2.71-3.07,4.14-3.07,.7,0,2.35,.46,2.81,1.88,.68,2.06-.24,4.49-.88,10.09-.07,.57-.79,3.98,.2,4.29,1.44,.45,2.74-1.67,4.52-7.34,.11-.34,.47-.53,.81-.42,.34,.11,.53,.47,.42,.81Z"/>
        <path class="cls-5" d="M211.92,81.26c-1.3,4.15-2.99,8.86-6.02,8.86-.21,0-2.18,.16-3.05-.86-1.32-1.56-1.58-3.7-1.19-8.38,.14-1.63,.92-6.11,0-5.25-.77,.73-1.25,1.79-1.69,2.73-.62,1.35-1.14,2.76-1.64,4.16-.5,1.4-.96,2.81-1.44,4.22-.2,.59-.87,3.39-2.64,3.18-2.04-.24-2.42-3.27-2.54-5.19-.12-1.87-.05-2.53-.05-4.4,0-1.56,.23-3.56,2.22-3.56,1.22,0,2.64,1.16,2.5,2.57-.1,.96-.1,1.88-.05,2.78v1.18c.88-2.61,2.15-5.95,3.56-8.27,1.36-2.25,2.71-3.07,4.14-3.07,.7,0,2.35,.46,2.81,1.88,.68,2.06-.24,4.49-.88,10.09-.07,.57-.79,3.98,.2,4.29,1.44,.45,2.74-1.67,4.52-7.34,.11-.34,.47-.53,.81-.42,.34,.11,.53,.47,.42,.81Z"/>
        <path class="cls-5" d="M230.57,81.26c-1.3,4.15-3.16,8.8-6.2,8.8-.21,0-1.66,0-2.52-1.02-1.03-1.21-1.49-2.68-1.65-5.49-.3,1.4-.64,2.79-1.42,4.02-.97,1.52-2.16,2.37-4.02,2.4-2.26,.02-4.27-2.86-4.26-7,0-2.38,.42-6.66,2.66-9.15,1.38-1.53,3.66-2.08,5.35-1.71,1.16,.25,2.16,1.06,2.61,1.57,.45-.92,1.01-1.31,1.62-1.51,.66-.21,2.34,.13,2.58,1.61,.36,2.14-.24,4.49-.88,10.09-.07,.57-.79,3.98,.2,4.29,1.44,.45,2.91-1.61,4.69-7.28,.11-.34,.47-.53,.81-.42,.34,.11,.53,.47,.42,.81Zm-10.42-4.62c-.12-.03-1.43-2.27-3.24-.97-.77,.56-1.55,2.99-1.85,7.2-.09,1.23-.05,3,.84,3.97,1.22,1.34,2.45-2.77,2.64-3.51,.67-2.61,1.68-6.68,1.61-6.7Z"/>
        <path class="cls-5" d="M249.27,81.67c-.05,.03-1.95,1.32-4.37,3.27-.03,1.3-.08,2.59-.11,3.88-.15,5.12-1.53,14.87-8.45,13.01-3.08-.83-3.41-4.19-2.46-6.76,1.18-3.22,3.84-5.74,6.31-8.01-.06-1.76-.16-3.55-.23-5.34-.02,.08-.02-.19-.02-.56-.62,2.11-1.88,5.79-2.52,6.79-.97,1.52-2.16,2.37-4.02,2.4-2.26,.02-4.27-2.86-4.26-7,0-2.38,.42-6.66,2.66-9.15,1.38-1.53,3.66-2.08,5.35-1.71,1.16,.25,2.16,1.06,2.61,1.57,.14-.28,.28-.5,.44-.69,1.16-1.58,4.18-1.34,4.44,1.04,.3,2.88,.34,5.81,.3,8.73,1.96-1.47,3.43-2.41,3.62-2.53,.3-.2,.7-.12,.89,.18,.2,.3,.12,.7-.18,.89Zm-10.48-4.65c-.12-.03-1.43-2.27-3.24-.97-.77,.56-1.55,2.99-1.85,7.2-.09,1.23-.05,3,.84,3.97,1.22,1.34,2.45-2.77,2.64-3.51,.67-2.61,1.68-6.68,1.61-6.7Zm1.44,12.04c-1.17,1.15-2.28,2.36-3.22,3.59-.58,.77-1.02,1.69-1.23,2.64-.28,1.28-.29,3.77,1.75,3.2,2.23-.62,2.33-3.74,2.56-5.59,.16-1.27,.16-2.55,.14-3.83Z"/>
        <path class="cls-5" d="M268.17,81.26c-1.3,4.15-3.16,8.8-6.2,8.8-.21,0-1.66,0-2.52-1.02-1.03-1.21-1.49-2.68-1.65-5.49-.3,1.4-.64,2.79-1.42,4.02-.97,1.52-2.16,2.37-4.02,2.4-2.26,.02-4.27-2.86-4.26-7,0-2.38,.42-6.66,2.66-9.15,1.38-1.53,3.66-2.08,5.35-1.71,1.16,.25,2.16,1.06,2.61,1.57,.45-.92,1.01-1.31,1.62-1.51,.66-.21,2.34,.13,2.58,1.61,.36,2.14-.24,4.49-.88,10.09-.07,.57-.79,3.98,.2,4.29,1.44,.45,2.91-1.61,4.69-7.28,.11-.34,.47-.53,.81-.42,.34,.11,.53,.47,.42,.81Zm-10.42-4.62c-.12-.03-1.43-2.27-3.24-.97-.77,.56-1.55,2.99-1.85,7.2-.09,1.23-.05,3,.84,3.97,1.22,1.34,2.45-2.77,2.64-3.51,.67-2.61,1.68-6.68,1.61-6.7Z"/>
        <path class="cls-5" d="M277.6,81.33c-1.3,4.15-3.16,8.8-6.2,8.8-.21,0-2.17,.12-3.03-.84-.84-.94-1.64-1.75-1.64-5.99,0-2.84,.45-6.7,1.08-8.7,.49-1.55,1.19-2.12,1.96-2.37,.66-.22,2.34,.13,2.58,1.61,.36,2.14-.24,4.49-.88,10.09-.07,.57-.79,3.98,.2,4.29,1.44,.45,2.92-1.61,4.69-7.28,.11-.34,.47-.53,.81-.42,.34,.11,.53,.47,.42,.81Zm-9.79-11.66c-.23-.82-.05-1.74,.59-2.42,.89-.96,2.37-1.25,3.52-.59,1.01,.58,1.59,1.84,1.28,2.97-.53,1.98-3.06,2.7-4.59,1.33-.4-.36-.67-.81-.81-1.29Z"/>
      </g>
      <g>
        <path class="cls-1" d="M302.38,68.03c-.68,.59-1.58,.88-2.45,1.04-1.82,.35-3.7,.18-5.54,.09-.12,0-.24-.01-.36-.02,.07,.36,.09,.71,.1,1.04,.12,3.99,.16,8.14-.29,12.11-.38,3.3-.35,6.77-1.13,10.01-.33,1.39-2.24,.94-2.38-.32-.66-6.13-1.08-12.5-.98-18.67,.01-.9,0-2.01,.14-3.07,.06-.45,.16-.9,.3-1.31-.51-.01-1.02-.02-1.53-.02-1.08,0-2.16,.06-3.22,.23-1.06,.17-2.07,.51-3.15,.6-1.51,.13-1.82-1.91-.72-2.62,1.51-.99,3.61-1.16,5.37-1.32,1.81-.16,3.63-.1,5.44-.04,2.49,.09,4.9,.32,7.39,.18,.57-.03,1.18-.05,1.71-.31,.44-.22,.78-.66,1.29-.72,.53-.06,1.08,.42,1.13,.93,.08,.8-.53,1.67-1.1,2.17Z"/>
        <path class="cls-1" d="M310.76,84.35c-.97,3.1-2.36,6.56-4.62,6.56-.16,0-1.99,.06-2.63-.7-.98-1.16-.95-1.97-.93-3.4,.02-1.61,.31-4.17,.51-5.76-.03,.02-.07,.04-.11,.07-.89,.58-2.05,.86-3.03,.72-.22,.81-.47,1.67-.73,2.52-.06,.21-.25,.34-.46,.34-.05,0-.1,0-.14-.02-.25-.08-.39-.35-.32-.6,.26-.84,.51-1.71,.73-2.52-.73-.4-1.17-1.19-.97-2.45,.44-2.75,3.2-3.53,2.67-.35-.03,.19,.09,.33,.26,.41,.91,.43,1.94,0,2.99-.95,.56-.51,1.96-.96,2.64,.06,.77,1.15,.32,2.87,.15,4.13-.25,1.83-.54,3.65-.81,5.48-.06,.44-.2,1.44,.38,1.63,1.07,.33,2.17-1.2,3.49-5.42,.08-.25,.35-.39,.6-.32,.25,.08,.39,.35,.31,.6Z"/>
        <path class="cls-1" d="M324.68,84.3c-.97,3.09-2.36,6.56-4.62,6.56-.16,0-1.24,0-1.88-.76-.76-.9-1.11-2-1.23-4.09-.22,1.04-.47,2.08-1.06,3-.72,1.13-1.61,1.77-3,1.78-1.68,.02-3.18-2.13-3.17-5.22,0-1.77,.31-4.96,1.99-6.82,1.03-1.14,2.73-1.55,3.99-1.27,.86,.19,1.61,.79,1.95,1.17,.34-.68,.76-.98,1.21-1.13,.49-.16,1.74,.1,1.93,1.2,.27,1.59-.18,3.35-.66,7.52-.05,.43-.59,2.97,.15,3.2,1.07,.33,2.17-1.2,3.49-5.42,.08-.25,.35-.39,.6-.31,.25,.08,.39,.35,.32,.6Zm-7.76-3.45c-.09-.02-1.07-1.69-2.42-.72-.58,.41-1.15,2.22-1.38,5.37-.07,.92-.04,2.23,.63,2.96,.91,1,1.83-2.06,1.97-2.61,.5-1.94,1.25-4.98,1.2-4.99Z"/>
        <path class="cls-1" d="M335.41,84.52c-.82,.92-1.74,2.31-3.5,2-.23-.04-.56-.16-.71-.29-.25,1.01-.61,2.09-1.15,2.98-.68,1.13-2.17,2.34-3.54,1.55-1.19-.69-1.69-2.27-2.05-3.52-.4-1.42-.78-3.31-.93-4.78-.1-1.03-.33-2.22-.06-3.24,.1-.36,.26-.68,.52-.95,.53-.54,1.6-.86,2.21-.28,.46,.44,.51,1.19,.59,1.79,.15,1.22,.19,2.44,.21,3.66,.03,1.31,.42,4.23,.63,4.68,.54,1.11,1.07,.49,1.67-1.04,.46-1.17,.37-2.02,.37-2.04-.04-.07-.08-.15-.11-.23-.53-1.21-.74-2.76-.72-4.06,.02-1.27,.34-2.81,1.82-3.16,.32-.07,.68,0,.89,.25,.19,.22,.23,.52,.26,.8,.19,1.89,.11,3.81-.22,5.68-.06,.35-.11,.57-.18,.92,0,.03,.16,.18,.18,.19,.1,.08,.23,.15,.35,.19,.24,.09,.48,.1,.73,.03,.46-.13,.85-.51,1.18-.84,.3-.3,.57-.62,.84-.94,.18-.2,.48-.22,.68-.04,.2,.18,.22,.48,.04,.68Z"/>
        <path class="cls-1" d="M345.87,84.35c-.27,.88-.57,1.75-.92,2.6-.44,1.05-.94,2.18-1.76,3-1.21,1.21-3.25,1.45-4.83,.96-2.21-.68-3.62-3.09-3.86-5.25-.33-2.87,.97-7.55,4.47-8.02,3.26-.44,4.07,3.41,3.26,5.82-.38,1.13-1.19,2.15-2.44,2.35-.6,.09-1.16-.04-1.56-.27,.03,.36,.13,.74,.18,1.01,0,.04,.02,.09,.03,.13,.23,.94,.77,1.92,1.6,2.44,.71,.45,1.67,.41,2.37-.03,.61-.38,.97-1.05,1.27-1.67,.52-1.08,.92-2.22,1.28-3.36,.08-.25,.35-.39,.6-.32,.25,.08,.39,.35,.31,.6Zm-7.78,.02c1.75,.09,2.84-1.41,2.58-3.06-.12-.81-.69-1.74-1.51-.93-.96,.93-1.07,2.75-1.07,4Z"/>
        <path class="cls-1" d="M355.08,84.35c-.09,.29-.19,.59-.29,.88-.51,1.51-1.09,3.11-2.1,4.37-.39,.49-.86,.94-1.45,1.16-.75,.28-1.7,.19-2.43-.1-1.25-.49-2.15-1.6-2.75-2.76-.61-1.18-.99-2.51-1.1-3.83-.07-.83-.12-1.65-.14-2.48-.07-3.72,.07-7.44,.79-11.09,.36-1.85,1.05-4.12,3.15-4.6,1.74-.4,2.92,1.42,3.27,2.88,.5,2.09,.17,4.41-.21,6.5-.4,2.21-.83,4.39-1.69,6.47-.38,.92-.78,1.96-1.34,2.88,0,.03,0,.06,0,.09,.06,.55,.1,1.11,.17,1.66,.12,.9,.33,2.3,1.38,2.58,.98,.26,2.08-.59,2.49-1.42,.16-.33,.31-.66,.44-.99,.33-.8,.61-1.63,.87-2.46,.08-.25,.35-.39,.6-.32,.25,.08,.39,.35,.32,.6Zm-6.3-2.99c.55-1.79,.96-3.63,1.13-5.49,.15-1.53,.23-3.13-.06-4.64-.04-.19-.08-.38-.13-.57-.67,3.09-.83,6.41-.98,9.53-.02,.48-.04,.96-.05,1.44,.03-.09,.06-.18,.09-.26Z"/>
        <path class="cls-1" d="M365.95,84.27c-.05,.26-.3,.43-.56,.38-.94-.18-1.91-.23-2.86-.15-.22,.02-.55,.04-.96,.11,.58,.46,1.04,1.05,1.22,1.79,.54,2.21-1.51,4.43-3.57,4.89-.86,.19-1.77,.16-2.56-.13-.31-.11-.6-.27-.86-.48-.58-.47-.94-1.16-.98-1.9-.04-.87,.45-1.57,1-2.19,.05-.06,.6-.58,.65-.56-2.85-1.22-3.77-4.42-1.35-7.04,1.39-1.5,4.46-1.98,6.22-1.01,1.98,1.09,1.77,4.04-.62,4.74-.24,.07-.57-.2-.41-.4,.73-.88,.56-2.39-.51-2.62-.69-.15-1.29-.02-1.87,.46-.73,.6-.72,2.03,.19,2.59,.71,.43,1.51,.74,2.27,1.13,.91-.25,1.65-.31,2.05-.34,1.04-.08,2.09-.03,3.12,.17,.26,.05,.43,.3,.38,.56Zm-6.77,3.78c.01-.61-.85-1.01-1.95-1.5-.54,.48-.9,1.04-.95,1.12-.06,.1-.09,.21-.09,.34,0,.33,.22,.63,.52,.82,.67,.43,1.56,.47,2.15-.13,.09-.09,.32-.33,.33-.66Z"/>
      </g>
    </g>
    <g>
      <path class="cls-4" d="M261.85,105.81s-.05,.09-.08,.13c-.58,.91-1.61,1.31-2.64,1.28-.03,.48-.07,.96-.13,1.44-.03,.21-.27,.38-.48,.28-.23-.12-.24-.53-.29-.75-.05-.25-.1-.51-.13-.77-.02-.13-.03-.27-.05-.4-.34-.1-.83-.29-.74-.62,.06-.23,.41-.3,.69-.3,0-.08,0-.16,0-.24,0-.56,.01-.96,.05-1.43,.02-.32,.05-.58,.07-.78-.04-.01-.14-.06-.2-.12,0,0-.02-.02-.03-.03-.02-.03-.01-.07,0-.11,.03-.12,.1-.24,.18-.34,.11-.15,.28-.26,.47-.27,.64-.05,.72,.98,.71,1.41-.02,.71-.04,1.42-.07,2.13,.01,0,.02,0,.04,0,.51-.1,.88-.31,1.23-.69,.55-.6,.73-1.57,.32-2.29-.49-.87-1.59-1.23-2.49-.79-.45,.22-.71,.59-.82,1.07-.06,.24-.05,.47-.03,.71,0,.14,.08,.33,0,.47-.09,.18-.27,.07-.33-.06-.17-.35-.21-.97-.13-1.34,.13-.58,.5-1.15,.99-1.49,1.05-.73,2.67-.46,3.52,.45,.85,.92,.98,2.36,.37,3.45Z"/>
      <path class="cls-4" d="M265.23,106.63c-.02,.08-.05,.16-.08,.23-.13,.4-.29,.82-.56,1.16-.1,.13-.23,.25-.39,.31-.2,.08-.45,.05-.64-.02-.33-.13-.57-.42-.73-.73-.16-.31-.26-.66-.29-1.02-.02-.22-.03-.44-.04-.66-.02-.98,.02-1.97,.21-2.94,.1-.49,.28-1.09,.83-1.22,.46-.11,.77,.38,.87,.76,.13,.56,.04,1.17-.05,1.72-.1,.58-.22,1.16-.45,1.71-.1,.24-.21,.52-.36,.76,0,0,0,.01,0,.02,.02,.15,.03,.29,.05,.44,.03,.24,.09,.61,.37,.68,.26,.07,.55-.16,.66-.38,.04-.09,.08-.17,.12-.26,.09-.21,.16-.43,.23-.65,.02-.07,.09-.1,.16-.08s.1,.09,.08,.16Zm-1.67-.79c.15-.48,.25-.96,.3-1.46,.04-.4,.06-.83-.02-1.23,0-.05-.02-.1-.03-.15-.18,.82-.22,1.7-.26,2.53,0,.13-.01,.25-.01,.38,0-.02,.02-.05,.02-.07Z"/>
      <path class="cls-4" d="M268.91,106.62c-.26,.82-.62,1.74-1.22,1.74-.04,0-.33,0-.5-.2-.2-.24-.29-.53-.33-1.08-.06,.28-.13,.55-.28,.79-.19,.3-.43,.47-.79,.47-.45,0-.84-.56-.84-1.38,0-.47,.08-1.31,.53-1.81,.27-.3,.72-.41,1.06-.34,.23,.05,.43,.21,.52,.31,.09-.18,.2-.26,.32-.3,.13-.04,.46,.03,.51,.32,.07,.42-.05,.89-.17,1.99-.01,.11-.16,.79,.04,.85,.28,.09,.58-.32,.93-1.44,.02-.07,.09-.1,.16-.08,.07,.02,.1,.09,.08,.16Zm-2.06-.91s-.28-.45-.64-.19c-.15,.11-.31,.59-.37,1.42-.02,.24,0,.59,.17,.78,.24,.26,.48-.55,.52-.69,.13-.51,.33-1.32,.32-1.32Z"/>
      <path class="cls-4" d="M272.63,106.62c-.26,.82-.59,1.75-1.19,1.75-.04,0-.43,.03-.6-.17-.26-.31-.31-.73-.24-1.65,.03-.32,.18-1.21,0-1.04-.15,.14-.25,.35-.33,.54-.12,.27-.23,.54-.32,.82-.1,.28-.19,.56-.28,.83-.04,.12-.17,.67-.52,.63-.4-.05-.48-.64-.5-1.03-.02-.37,0-.5,0-.87,0-.31,.05-.7,.44-.7,.24,0,.52,.23,.49,.51-.02,.19-.02,.37-.01,.55v.23c.17-.51,.43-1.18,.7-1.63,.27-.44,.53-.61,.82-.61,.14,0,.46,.09,.56,.37,.13,.41-.05,.89-.17,1.99-.01,.11-.16,.79,.04,.85,.28,.09,.54-.33,.89-1.45,.02-.07,.09-.1,.16-.08,.07,.02,.1,.09,.08,.16Z"/>
      <path class="cls-4" d="M276.35,106.62c-.26,.82-.59,1.75-1.19,1.75-.04,0-.43,.03-.6-.17-.26-.31-.31-.73-.24-1.65,.03-.32,.18-1.21,0-1.04-.15,.14-.25,.35-.33,.54-.12,.27-.23,.54-.32,.82-.1,.28-.19,.56-.28,.83-.04,.12-.17,.67-.52,.63-.4-.05-.48-.64-.5-1.03-.02-.37,0-.5,0-.87,0-.31,.05-.7,.44-.7,.24,0,.52,.23,.49,.51-.02,.19-.02,.37-.01,.55v.23c.17-.51,.43-1.18,.7-1.63,.27-.44,.53-.61,.82-.61,.14,0,.46,.09,.56,.37,.13,.41-.05,.89-.17,1.99-.01,.11-.16,.79,.04,.85,.28,.09,.54-.33,.89-1.45,.02-.07,.09-.1,.16-.08,.07,.02,.1,.09,.08,.16Z"/>
      <path class="cls-4" d="M278.22,106.63c-.26,.82-.62,1.74-1.22,1.74-.04,0-.43,.02-.6-.16-.17-.18-.32-.34-.32-1.18,0-.56,.09-1.32,.21-1.72,.1-.31,.24-.42,.39-.47,.13-.04,.46,.03,.51,.32,.07,.42-.05,.89-.17,1.99-.01,.11-.16,.79,.04,.85,.28,.09,.58-.32,.93-1.44,.02-.07,.09-.1,.16-.08,.07,.02,.1,.09,.08,.16Zm-1.93-2.3c-.05-.16-.01-.34,.12-.48,.18-.19,.47-.25,.7-.12,.2,.11,.31,.36,.25,.59-.11,.39-.6,.53-.91,.26-.08-.07-.13-.16-.16-.25Z"/>
      <path class="cls-4" d="M281.94,106.62c-.26,.82-.59,1.75-1.19,1.75-.04,0-.43,.03-.6-.17-.26-.31-.31-.73-.24-1.65,.03-.32,.18-1.21,0-1.04-.15,.14-.25,.35-.33,.54-.12,.27-.23,.54-.32,.82-.1,.28-.19,.56-.28,.83-.04,.12-.17,.67-.52,.63-.4-.05-.48-.64-.5-1.03-.02-.37,0-.5,0-.87,0-.31,.05-.7,.44-.7,.24,0,.52,.23,.49,.51-.02,.19-.02,.37-.01,.55v.23c.17-.51,.43-1.18,.7-1.63,.27-.44,.53-.61,.82-.61,.14,0,.46,.09,.56,.37,.13,.41-.05,.89-.17,1.99-.01,.11-.16,.79,.04,.85,.28,.09,.54-.33,.89-1.45,.02-.07,.09-.1,.16-.08,.07,.02,.1,.09,.08,.16Z"/>
      <path class="cls-4" d="M285.63,106.7s-.38,.26-.86,.65c0,.26-.01,.51-.02,.77-.03,1.01-.3,2.94-1.67,2.57-.61-.16-.67-.83-.49-1.34,.23-.64,.76-1.13,1.25-1.58-.01-.35-.03-.7-.05-1.05,0,.02,0-.04,0-.11-.12,.42-.37,1.14-.5,1.34-.19,.3-.43,.47-.79,.47-.45,0-.84-.56-.84-1.38,0-.47,.08-1.31,.53-1.81,.27-.3,.72-.41,1.06-.34,.23,.05,.43,.21,.52,.31,.03-.05,.06-.1,.09-.14,.23-.31,.83-.27,.88,.2,.06,.57,.07,1.15,.06,1.72,.39-.29,.68-.48,.71-.5,.06-.04,.14-.02,.18,.03,.04,.06,.02,.14-.03,.18Zm-2.07-.92s-.28-.45-.64-.19c-.15,.11-.31,.59-.37,1.42-.02,.24,0,.59,.17,.78,.24,.26,.48-.55,.52-.69,.13-.51,.33-1.32,.32-1.32Zm.28,2.38c-.23,.23-.45,.47-.63,.71-.11,.15-.2,.33-.24,.52-.06,.25-.06,.74,.35,.63,.44-.12,.46-.74,.5-1.1,.03-.25,.03-.5,.03-.76Z"/>
      <path class="cls-4" d="M291.66,106.62c-.26,.82-.62,1.74-1.22,1.74-.04,0-.33,0-.5-.2-.2-.24-.29-.53-.33-1.08-.06,.28-.13,.55-.28,.79-.19,.3-.43,.47-.79,.47-.45,0-.84-.56-.84-1.38,0-.47,.08-1.31,.53-1.81,.27-.3,.72-.41,1.06-.34,.23,.05,.43,.21,.52,.31,.09-.18,.2-.26,.32-.3,.13-.04,.46,.03,.51,.32,.07,.42-.05,.89-.17,1.99-.01,.11-.16,.79,.04,.85,.28,.09,.58-.32,.93-1.44,.02-.07,.09-.1,.16-.08,.07,.02,.1,.09,.08,.16Zm-2.06-.91s-.28-.45-.64-.19c-.15,.11-.31,.59-.37,1.42-.02,.24,0,.59,.17,.78,.24,.26,.48-.55,.52-.69,.13-.51,.33-1.32,.32-1.32Z"/>
      <path class="cls-4" d="M295.93,106.63c-.26,.82-.62,1.74-1.22,1.74-.04,0-.49,.04-.69-.19-.26-.31-.31-.71-.31-1.63,0-.28,0-.84,.02-1.37-.15,0-.3-.02-.45-.04-.33-.04-.31-.48,.03-.51,.15-.01,.3-.02,.45-.02,.02-.3,.02-.47,.06-.59,.1-.31,.26-.4,.41-.45,.13-.04,.46,.02,.51,.32,.02,.15,.01,.35,0,.74,.16,0,.33,.02,.48,.04,.33,.03,.31,.48-.03,.51-.16,.01-.33,.02-.49,.03-.05,.64-.11,1.37-.13,1.96,0,.11,0,.79,.2,.85,.28,.09,.58-.32,.93-1.44,.02-.07,.09-.1,.16-.08,.07,.02,.1,.09,.08,.16Z"/>
      <path class="cls-4" d="M298.98,106.63c-.26,.82-.62,1.74-1.22,1.74-.04,0-.53,.02-.7-.18-.26-.31-.25-.52-.25-.9,0-.43,.08-1.11,.13-1.53,0,0-.02,.01-.03,.02-.23,.15-.54,.23-.8,.19-.06,.22-.12,.44-.19,.67-.02,.05-.07,.09-.12,.09-.01,0-.03,0-.04,0-.07-.02-.1-.09-.08-.16,.07-.22,.13-.45,.19-.67-.19-.11-.31-.31-.26-.65,.12-.73,.85-.94,.71-.09,0,.05,.02,.09,.07,.11,.24,.11,.51,0,.79-.25,.15-.13,.52-.25,.7,.02,.2,.3,.09,.76,.04,1.09-.07,.48-.14,.97-.21,1.45-.02,.12-.05,.38,.1,.43,.28,.09,.58-.32,.93-1.44,.02-.07,.09-.1,.16-.08s.1,.09,.08,.16Z"/>
      <path class="cls-4" d="M300.85,106.63c-.26,.82-.62,1.74-1.22,1.74-.04,0-.43,.02-.6-.16-.17-.18-.32-.34-.32-1.18,0-.56,.09-1.32,.21-1.72,.1-.31,.24-.42,.39-.47,.13-.04,.46,.03,.51,.32,.07,.42-.05,.89-.17,1.99-.01,.11-.16,.79,.04,.85,.28,.09,.58-.32,.93-1.44,.02-.07,.09-.1,.16-.08,.07,.02,.1,.09,.08,.16Zm-1.93-2.3c-.05-.16-.01-.34,.12-.48,.18-.19,.47-.25,.7-.12,.2,.11,.31,.36,.25,.59-.11,.39-.6,.53-.91,.26-.08-.07-.13-.16-.16-.25Z"/>
      <path class="cls-4" d="M304.6,106.64c0,.07-.07,.12-.14,.11,0,0-.34-.04-.78-.01-.07,.44-.26,.86-.55,1.18-.27,.3-.67,.46-1.08,.44-.15,0-.3-.06-.42-.14,0,0,0,.02,0,.03-.02,.49-.06,.96-.14,1.44-.05,.36-.08,.97-.46,1.15-.11,.05-.21,.04-.31-.04-.33-.25-.22-.88-.22-1.24,0-.46,.03-.92,.05-1.38,.04-.94,.04-1.88,.02-2.82-.02-.67,1.02-.66,1.05,0,.01,.23,0,.89,0,1.12,.06-.26,.25-.96,.4-1.2,.19-.3,.33-.46,.7-.46,.45,0,.75,.33,.88,.73,.1,.29,.13,.61,.11,.92,.43-.03,.75,.02,.78,.02,.07,0,.12,.07,.11,.14Zm-2.79,.53s0,.04-.01,.06c.22-.22,.47-.38,.74-.49,.04-.22,.05-.44,.02-.66-.01-.09-.07-.53-.24-.47-.09,.03-.15,.19-.18,.27-.04,.11-.06,.22-.09,.32-.08,.32-.15,.65-.24,.97Zm.64-.11c-.21,.11-.41,.26-.58,.46,.13,.07,.2,.12,.34,0,.13-.12,.2-.29,.24-.46Z"/>
      <path class="cls-4" d="M305.79,102.4c.16-.29,.39-.52,.68-.68,.29-.17,.64-.25,1.03-.25,.67,0,1.2,.16,1.58,.48,.38,.32,.57,.76,.57,1.32,0,.27-.05,.5-.14,.7-.09,.2-.22,.39-.36,.56-.15,.17-.3,.33-.47,.49-.17,.15-.32,.31-.47,.47-.14,.16-.26,.34-.35,.53-.05,.11-.09,.22-.13,.33-.04,.1-.05,.21-.04,.33s.06,.23,.15,.37l-.07,.05c-.2-.15-.35-.31-.45-.49-.09-.18-.14-.37-.13-.58,0-.19,.06-.37,.15-.53,.09-.16,.21-.33,.35-.48,.14-.16,.27-.32,.41-.49,.14-.17,.25-.36,.34-.56,.09-.21,.14-.44,.14-.7,0-.46-.11-.81-.32-1.06s-.51-.37-.88-.37c-.4,0-.72,.14-.95,.42-.23,.28-.34,.68-.34,1.2h-.11l-.19-1.04Zm1.82,6.64c-.15,0-.29-.05-.4-.16-.11-.11-.17-.24-.17-.4s.06-.3,.17-.4c.11-.11,.25-.16,.4-.16s.3,.05,.4,.16c.11,.11,.16,.24,.16,.4s-.05,.3-.16,.4c-.11,.11-.24,.16-.4,.16Z"/>
      <path class="cls-4" d="M315.21,102.85c-.12-.52-.94-.41-1.29-.28-.43,.16-.88,.45-1.15,.83-.69,.98,.47,1.7,1.25,2.08,.87,.43,1.88,1.09,1.81,2.2-.03,.57-.37,1.14-.94,1.31-.64,.19-1.35-.14-1.87-.5-.42-.3-.79-.7-1-1.18-.12-.28,.33-.51,.51-.29,.43,.5,1.19,1.33,1.94,1.15,.46-.11,.3-.66,.1-.94-.31-.44-.9-.66-1.36-.91-.48-.26-.96-.53-1.33-.95-.82-.94-.64-2.24,.27-3.05,.81-.72,2.12-1.15,3.14-.63,.44,.22,.73,.71,.66,1.21-.04,.31-.23,.57-.47,.77-.17,.13-.36,.24-.55,.33-.14,.07-.37,.19-.53,.11-.03-.02-.06-.04-.07-.08-.13-.28,.43-.53,.59-.64,.16-.12,.33-.32,.28-.54Z"/>
      <path class="cls-4" d="M320.34,106.64c0,.07-.07,.12-.14,.11,0,0-.34-.04-.78-.01-.07,.44-.26,.86-.55,1.18-.27,.3-.67,.46-1.08,.44-.15,0-.3-.06-.42-.14,0,0,0,.02,0,.03-.02,.49-.06,.96-.14,1.44-.05,.36-.08,.97-.46,1.15-.11,.05-.21,.04-.31-.04-.33-.25-.22-.88-.22-1.24,0-.46,.03-.92,.05-1.38,.04-.94,.04-1.88,.02-2.82-.02-.67,1.02-.66,1.05,0,.01,.23,0,.89,0,1.12,.06-.26,.25-.96,.4-1.2,.19-.3,.33-.46,.7-.46,.45,0,.75,.33,.88,.73,.1,.29,.13,.61,.11,.92,.43-.03,.75,.02,.78,.02,.07,0,.12,.07,.11,.14Zm-2.79,.53s0,.04-.01,.06c.22-.22,.47-.38,.74-.49,.04-.22,.05-.44,.02-.66-.01-.09-.07-.53-.24-.47-.09,.03-.15,.19-.18,.27-.04,.11-.06,.22-.09,.32-.08,.32-.15,.65-.24,.97Zm.64-.11c-.21,.11-.41,.26-.58,.46,.13,.07,.2,.12,.34,0,.13-.12,.2-.29,.24-.46Z"/>
      <path class="cls-4" d="M323.08,106.63c-.07,.23-.15,.46-.24,.69-.12,.28-.25,.58-.47,.79-.32,.32-.86,.38-1.28,.25-.59-.18-.96-.82-1.02-1.39-.09-.76,.26-2,1.18-2.13,.86-.12,1.08,.9,.86,1.54-.1,.3-.32,.57-.65,.62-.16,.02-.31-.01-.41-.07,0,.09,.03,.2,.05,.27,0,.01,0,.02,0,.03,.06,.25,.2,.51,.42,.65,.19,.12,.44,.11,.63,0,.16-.1,.26-.28,.34-.44,.14-.29,.24-.59,.34-.89,.02-.07,.09-.1,.16-.08s.1,.09,.08,.16Zm-2.06,0c.46,.02,.75-.37,.68-.81-.03-.22-.18-.46-.4-.25-.25,.25-.28,.73-.28,1.06Z"/>
      <path class="cls-4" d="M326.76,106.62c-.26,.82-.62,1.74-1.22,1.74-.04,0-.33,0-.5-.2-.2-.24-.29-.53-.33-1.08-.06,.28-.13,.55-.28,.79-.19,.3-.43,.47-.79,.47-.45,0-.84-.56-.84-1.38,0-.47,.08-1.31,.53-1.81,.27-.3,.72-.41,1.06-.34,.23,.05,.43,.21,.52,.31,.09-.18,.2-.26,.32-.3,.13-.04,.46,.03,.51,.32,.07,.42-.05,.89-.17,1.99-.01,.11-.16,.79,.04,.85,.28,.09,.58-.32,.93-1.44,.02-.07,.09-.1,.16-.08,.07,.02,.1,.09,.08,.16Zm-2.06-.91s-.28-.45-.64-.19c-.15,.11-.31,.59-.37,1.42-.02,.24,0,.59,.17,.78,.24,.26,.48-.55,.52-.69,.13-.51,.33-1.32,.32-1.32Z"/>
      <path class="cls-4" d="M330.21,106.63c-.26,.82-.62,1.74-1.22,1.74-.04,0-.72,.13-1.09-.26-.19-.2-.33-.45-.43-.74-.02,.09-.06,.38-.09,.53-.04,.19-.21,.46-.43,.49-.51,.06-.48-.73-.46-1.05,.02-.66,.04-1.33,.07-1.99,.04-1.06,.04-2.11,.02-3.17-.02-.67,1.02-.66,1.05,0,.05,1.08,.05,2.15,0,3.23,0,.18-.02,.37-.03,.55,.05-.07,.11-.15,.16-.22,.27-.34,1.01-1.22,1.54-.82,.47,.35-.11,.96-.39,1.19-.25,.19-.51,.35-.79,.5,0,.01,0,.02,0,.04,.2,1,.73,1.28,.92,1.34,.28,.09,.58-.32,.93-1.44,.02-.07,.09-.1,.16-.08,.07,.02,.1,.09,.08,.16Zm-2.22-.53c.55-.3,1.2-.7,1.04-.86-.15-.15-.63,.36-.71,.45-.12,.13-.23,.27-.33,.41Z"/>
      <path class="cls-4" d="M334.48,106.63c-.26,.82-.62,1.74-1.22,1.74-.04,0-.49,.04-.69-.19-.26-.31-.31-.71-.31-1.63,0-.28,0-.84,.02-1.37-.15,0-.3-.02-.45-.04-.33-.04-.31-.48,.03-.51,.15-.01,.3-.02,.45-.02,.02-.3,.02-.47,.06-.59,.1-.31,.26-.4,.41-.45,.13-.04,.46,.02,.51,.32,.02,.15,.01,.35,0,.74,.16,0,.33,.02,.48,.04,.33,.03,.31,.48-.03,.51-.16,.01-.33,.02-.49,.03-.05,.64-.11,1.37-.13,1.96,0,.11,0,.79,.2,.85,.28,.09,.58-.32,.93-1.44,.02-.07,.09-.1,.16-.08,.07,.02,.1,.09,.08,.16Z"/>
      <path class="cls-4" d="M337.4,106.5c.05,.05,.06,.13,.01,.18-.13,.15-.47,.47-.96,.56-.14,.51-.44,1.13-1,1.2-.56,.07-1.11-.43-1.23-.97-.12-.56,.01-1.21,.3-1.71,0,0,0-.01,.01-.02,.02-.39,.27-.83,.77-.96,.87-.22,1.17,.86,1.23,1.53,.02,.22,0,.44-.03,.65,.36-.1,.61-.34,.72-.45,.05-.05,.13-.06,.18-.01Zm-1.5,.76c-.22-.04-.5-.15-.69-.27-.03,.1-.05,.32-.03,.4,.07,.28,.26,.37,.5,.2,.13-.09,.22-.33,.22-.33Zm-.69-1.68c.08,.04,.15,.11,.2,.19,.11,.18,.08,.37,0,.55-.05,.11-.08,.21-.11,.32,.04,.04,.09,.07,.14,.11,.17,.11,.37,.2,.57,.23,.08-.27,.08-.58,.03-.84-.03-.18-.08-.35-.2-.49-.12-.13-.31-.22-.48-.17-.05,.02-.1,.05-.14,.09Z"/>
      <path class="cls-4" d="M343.38,106.63c-.26,.82-.62,1.74-1.22,1.74-.04,0-.33,0-.5-.2-.23-.27-.32-.61-.34-1.32-.08,.28-.15,.55-.19,.64-.13,.41-.32,.86-.82,.85-.6-.01-.79-.69-.84-1.18-.06-.6,0-1.4,.12-2,.05-.25,.38-.38,.59-.32,.28,.08,.34,.34,.29,.6-.05,.3-.11,.82-.14,1.12-.01,.18-.08,1.36,.36,1.04,.1-.07,.16-.2,.21-.31,.08-.16,.12-.34,.17-.51,.11-.38,.19-.77,.29-1.16,.07-.28,.11-.62,.4-.75,.02,0,.04-.02,.06-.02,.13-.04,.46,.03,.51,.32,.07,.42-.05,.89-.17,1.99-.01,.11-.16,.79,.04,.85,.28,.09,.58-.32,.93-1.44,.02-.07,.09-.1,.16-.08,.07,.02,.1,.09,.08,.16Z"/>
      <path class="cls-4" d="M346.26,106.61c-.01,.07-.08,.11-.15,.1-.25-.05-.51-.06-.76-.04-.06,0-.14,.01-.25,.03,.15,.12,.28,.28,.32,.47,.14,.59-.4,1.18-.95,1.3-.23,.05-.47,.04-.68-.03-.08-.03-.16-.07-.23-.13-.15-.12-.25-.31-.26-.5-.01-.23,.12-.42,.26-.58,.01-.02,.16-.15,.17-.15-.75-.32-1-1.17-.36-1.87,.37-.4,1.18-.52,1.65-.27,.52,.29,.47,1.07-.16,1.26-.06,.02-.15-.05-.11-.11,.19-.23,.15-.63-.14-.69-.18-.04-.34,0-.5,.12-.19,.16-.19,.54,.05,.69,.19,.11,.4,.2,.6,.3,.24-.07,.44-.08,.54-.09,.28-.02,.55,0,.83,.04,.07,.01,.11,.08,.1,.15Zm-1.79,1c0-.16-.23-.27-.52-.4-.14,.13-.24,.27-.25,.3-.02,.03-.02,.05-.03,.09,0,.09,.06,.17,.14,.22,.18,.11,.41,.12,.57-.03,.02-.02,.08-.09,.09-.18Z"/>
      <path class="cls-4" d="M354.02,102.03c-.29,.34-.7,.53-1.12,.65-.03,0-.06,.02-.09,.03-.51,.14-1.04,.18-1.56,.13-.21-.02-.41-.05-.62-.09,.14,.13,.23,.33,.28,.5,.1,.34,.09,.7,.08,1.05-.02,.42-.03,.84-.05,1.26,.22,0,.43-.01,.64-.03,.26-.02,.86-.08,.92,.29,.02,.16-.06,.29-.2,.36-.39,.17-.86,.17-1.28,.18-.04,0-.07,0-.11,0-.03,.77-.08,1.53-.17,2.3-.04,.33-.53,.45-.63,.08-.21-.78-.32-1.57-.35-2.37-.09,0-.17-.01-.26-.03-.33-.05-.31-.56,0-.63,.08-.02,.16-.04,.25-.05,0-.45,.01-.91,.05-1.36,.02-.25,.04-.51,.1-.76-.05,0-.09-.01-.14-.05-.01,0-.03-.02-.02-.04,.03-.21,.02-.39,.15-.57,.08-.11,.18-.2,.31-.24-.16-.05-.32-.12-.47-.18-.2-.07-.43-.19-.65-.19-.2,0-.34,.14-.35,.33-.02,.22,.11,.41,.25,.56,.08,.09,.17,.17,.27,.24,.02,.02,.05,.04,.06,.06,.11,.11,0,.21-.12,.22-.38,.04-.79-.26-.97-.57-.19-.32-.22-.72-.03-1.05,.51-.88,1.53-.31,2.25-.1,.44,.13,.94,.2,1.43,.17,.02-.1,.08-.19,.19-.26,.4-.24,.79-.51,1.23-.67,.22-.08,.5-.17,.73-.05,.35,.18,.22,.64,.02,.88Z"/>
      <path class="cls-4" d="M355.09,106.63c-.26,.82-.62,1.74-1.22,1.74-.04,0-.43,.02-.6-.16-.17-.18-.32-.34-.32-1.18,0-.56,.09-1.32,.21-1.72,.1-.31,.24-.42,.39-.47,.13-.04,.46,.03,.51,.32,.07,.42-.05,.89-.17,1.99-.01,.11-.16,.79,.04,.85,.28,.09,.58-.32,.93-1.44,.02-.07,.09-.1,.16-.08,.07,.02,.1,.09,.08,.16Zm-1.93-2.3c-.05-.16-.01-.34,.12-.48,.18-.19,.47-.25,.7-.12,.2,.11,.31,.36,.25,.59-.11,.39-.6,.53-.91,.26-.08-.07-.13-.16-.16-.25Z"/>
      <path class="cls-4" d="M358.14,106.63c-.26,.82-.62,1.74-1.22,1.74-.04,0-.53,.02-.7-.18-.26-.31-.25-.52-.25-.9,0-.43,.08-1.11,.13-1.53,0,0-.02,.01-.03,.02-.23,.15-.54,.23-.8,.19-.06,.22-.12,.44-.19,.67-.02,.05-.07,.09-.12,.09-.01,0-.03,0-.04,0-.07-.02-.1-.09-.08-.16,.07-.22,.13-.45,.19-.67-.19-.11-.31-.31-.26-.65,.12-.73,.85-.94,.71-.09,0,.05,.02,.09,.07,.11,.24,.11,.51,0,.79-.25,.15-.13,.52-.25,.7,.02,.2,.3,.09,.76,.04,1.09-.07,.48-.14,.97-.21,1.45-.02,.12-.05,.38,.1,.43,.28,.09,.58-.32,.93-1.44,.02-.07,.09-.1,.16-.08s.1,.09,.08,.16Z"/>
      <path class="cls-4" d="M363.09,106.63c-.26,.82-.62,1.74-1.22,1.74-.04,0-.49,.04-.69-.19-.26-.31-.31-.71-.31-1.63,0-.28,.05-1.5,.07-2.04,0,0,.03,.02-.03,.01-.19,.84-.59,2.47-.71,2.81-.19,.57-.51,1.02-1.06,1.14-.23,.05-.47,.04-.68-.03-.08-.03-.16-.07-.23-.13-.15-.12-.27-.3-.31-.52-.03-.19,.03-.41,.16-.44,.11-.02,.03,.11,.12,.3,.21,.47,.68,.29,.84,.13,.02-.02,.08-.09,.09-.18,0-.15-.16-.22-.27-.28-.32-.18-.69-.32-.93-.61-.12-.15-.2-.32-.23-.51-.05-.37,.11-.73,.36-1,.37-.4,1.18-.52,1.65-.27,.52,.29,.47,1.07-.16,1.26-.06,.02-.15-.05-.11-.11,.19-.23,.15-.63-.14-.69-.18-.04-.34,0-.5,.12-.19,.16-.19,.54,.05,.69,.19,.11,1.01,.44,1.14,.89,.09-.24,.53-2.11,.66-2.59-.06,0-.89-.02-.95-.02-.33-.04-.31-.48,.03-.51,.11,0,.96-.01,1.07-.02,.08-.26,.15-.48,.19-.6,0,0,0,0,0,0,.1-.31,.26-.4,.41-.45,.13-.04,.46,.03,.51,.32,.02,.15,.01,.35,0,.74,.16,0,.33,.02,.48,.04,.33,.03,.31,.48-.03,.51-.16,.01-.33,.02-.49,.03-.05,.64-.11,2.02-.13,2.61,0,.11,0,.79,.2,.85,.28,.09,.58-.32,.93-1.44,.02-.07,.09-.1,.16-.08,.07,.02,.1,.09,.08,.16Z"/>
      <path class="cls-4" d="M365.39,109.04c-.16,0-.3-.05-.4-.16-.11-.11-.16-.24-.16-.4s.05-.3,.16-.4c.11-.11,.24-.16,.4-.16s.3,.05,.4,.16c.11,.11,.16,.24,.16,.4s-.05,.3-.16,.4c-.11,.11-.24,.16-.4,.16Zm.12-1.98h-.23l-.26-2.24-.15-3.23h1.06l-.15,3.23-.27,2.24Z"/>
    </g>
  </g>
  <g>
    <path class="cls-2" d="M87.56,40.56l-4.58-.07-.11,7.4,8.5,.12,.04-3.04c0-.14,0-.29-.02-.43-.01-.14-.03-.28-.05-.42-.02-.14-.05-.28-.09-.42-.04-.14-.08-.27-.12-.4-.05-.13-.1-.26-.16-.39-.06-.13-.12-.25-.19-.37-.07-.12-.15-.24-.22-.35-.08-.11-.16-.22-.25-.32-.09-.1-.18-.2-.28-.29-.1-.09-.2-.18-.31-.26-.1-.08-.21-.16-.33-.23-.11-.07-.23-.13-.34-.19-.12-.06-.24-.11-.36-.15-.12-.04-.25-.08-.37-.11-.13-.03-.25-.05-.38-.07-.13-.01-.25-.02-.38-.03h0Z"/>
    <path class="cls-2" d="M47.03,41l4.58-.07,.11,7.4-8.5,.12-.04-3.04c0-.14,0-.29,.02-.43,.01-.14,.03-.28,.05-.42,.02-.14,.05-.28,.09-.42,.04-.14,.08-.27,.12-.4,.05-.13,.1-.26,.16-.39,.06-.13,.12-.25,.19-.37,.07-.12,.15-.24,.22-.35,.08-.11,.16-.22,.25-.32,.09-.1,.18-.2,.28-.29,.1-.09,.2-.18,.31-.26,.1-.08,.21-.16,.33-.23,.11-.07,.23-.13,.34-.19,.12-.06,.24-.11,.36-.15,.12-.04,.25-.08,.37-.11,.13-.03,.25-.05,.38-.07,.13-.01,.25-.02,.38-.03h0Z"/>
    <g>
      <path class="cls-1" d="M38.23,72.13s5.87-15.28,30.2-14.92c24.33,.36,29.26,12.89,29.26,12.89v12.38s-1.74,27.63-35.41,19.47c-1.25-.64-2.6-1.47-3.96-2.53-4.39-3.4-6.75-7.53-7.98-10.26-1.04-.82-2.38-.92-3.31-.3-.77,.52-.99,1.36-1.04,1.61,0,.22,0,.55,.02,.96,0,0,.27,5.94,3.56,11.62,3.39,5.85,14.06,13.34,26.83,13.09,13.56-.27,22.21-9.08,23.98-10.97,1.16-1.19,2.65-2.91,4.05-5.21,.72-1.17,1.22-2.17,1.26-2.15,.05,.03-.71,1.72-4,8.53-4.05,3.79-5.73,7.37-8.8,9.25-3.16,1.95-10.58,8.55-23.24,6.7-5.97-1.49-10.35-4.28-13.04-6.35,0,0-10.65-3.48-16.29-15.21,0,0-1.67-1.88-2.1-11.3v-17.31Z"/>
      <path class="cls-4" d="M111.85,81.69c-2.72-.92-5.68,.55-6.6,3.27s1.53,10.25,1.63,10.57l.1,.3s.04,.06,.07,.08,.07,0,.1-.01l.26-.18c.28-.19,6.82-4.8,7.7-7.42,.92-2.72-.55-5.68-3.27-6.6Zm-1.07,3.17c.97,.33,1.5,1.39,1.17,2.36s-1.39,1.5-2.36,1.17c-.97-.33-1.5-1.39-1.17-2.36,.33-.97,1.39-1.5,2.36-1.17Z"/>
      <path class="cls-5" d="M15.28,82.69l6.83-6.8s2.99-.63,4.57-.99c1.28,6.41-4.79,8.11-7.13,11.96-1.36-1.26-2.71-2.71-4.27-4.17Z"/>
      <path class="cls-3" d="M78.27,31.55c.25,0,.51,.04,.75,.1,.24,.06,.31,.06,.53,.18,.22,.12,.58,.02,.77,.19,.19,.16,.36,.35,.51,.56,.3,.41,.53,.85,.68,1.33,.16,.48,.23,.97,.23,1.47v5.47c0,.09,0,.17-.03,.26-.02,.08-.04,.17-.07,.25-.03,.08-.07,.16-.12,.23-.05,.07-.1,.14-.16,.2-.06,.06-.13,.12-.2,.16-.07,.05-.16,.02-.24,.06-.08,.03-.16-.03-.24-.01-.08,.02-.15,.03-.24,.03l-.15-.03v1.65c.87,.19,2.1,.5,2.94,.74l-.14-11.22c0-.4,0-.83-.13-1.21-.12-.38-.43-.67-.66-1-.09-.15-.35-.27-.5-.37-.15-.1-.33-.27-.51-.29h-28.23c-.18,.02-.39,.19-.54,.29-.15,.1-.27,.22-.37,.38-.23,.33-.46,.59-.58,.98-.12,.38-.11,.87-.1,1.27v11.75c.83-.3,1.68-.49,2.54-.74v-2.38s-.13,.07-.13,.07c-.09,0-.17,.03-.26,.01-.09-.02-.18,.02-.26,0-.08-.03-.16-.07-.23-.12-.07-.05-.14-.1-.2-.16-.06-.06-.12-.13-.16-.2-.05-.07-.09-.15-.12-.23-.03-.08-.06-.16-.07-.25-.02-.08-.02-.17-.02-.26v-5.35c0-.5,.07-.99,.23-1.47s.55-.85,.85-1.26c.15-.21,.21-.27,.4-.43s.37-.26,.59-.37c.22-.12,.44-.15,.68-.22,.24-.06,.52-.12,.77-.12l21.98,.09h.2Z"/>
      <path class="cls-4" d="M89.52,113.64c-6.22,3.3-12.07,4.26-15.77,4.54-7.51,.57-13.11-1.15-14.3-1.53-3.9-1.25-6.59-2.91-7.55-3.46-8.32-4.81-12.66-12.39-13.06-22.06-.24-5.95-.17-11.91-.45-17.86-.19-3.83,1.28-6.91,3.65-9.67,4.48-5.24,10.53-7.56,17.08-8.68,10.09-1.73,19.93-.86,29.3,3.48,3.59,1.66,7.61,4.29,9.09,8.15,.81,2.11,.42,4.4,.39,6.6-.05,3.24-.13,6.49-.44,9.71-1.14,11.73-9.84,19.97-21.66,20.64-8.73,.49-16.45-1.77-22.08-8.97-.95-1.22-1.63-2.65-2.37-4.02-.97-1.82-2.4-2.54-3.93-1.87-1.51,.66-1.9,2.17-.95,4.21,4.09,8.82,11.22,13.76,20.55,15.48,11.18,2.06,21.15-.45,29.1-8.97,8.34-8.93,6.6-21.65,7.14-32.89,.36-7.57-3.62-13.91-10.03-17.73-.47-.28-.96-.55-1.37-.92-.47-.41-.82-.94-1.16-1.46-3.03-4.53-2.39-8.4-2.56-13.64-.16-4.82-3.06-7.63-7.82-7.64-8.5-.02-17.01-.02-25.52,0-5.69,.02-8.43,2.68-8.61,8.43-.13,4.04,.37,7.67-1.24,11.46-1.55,3.65-4.05,5.8-6.57,8.69-2.42,2.78-3.93,6.67-4.61,10.25-.62,3.3-3.1,5.5-6.4,5.74-1.84,.14-3.69,.19-5.5,.48l-1.94,1.73c-3.09,2.93-9.18,8.72-9.18,8.72-1.16,1-.97,2.95,.18,4,2.26,2.05,3.69,3.59,5.95,5.63,1.73,1.57,3.15,2.09,4.36,.73l5.71-6.59,3.93-4.59s.9-5.96,1.1-7.36c.1-.68,.45-1.32,.72-1.95,0-.02,.02-.04,.04-.05,.02,0,.04,0,.05,0,.27,.1,.39,.08,.46,.33,.06,.22,0,.56,0,.79,0,.53,0,1.05,0,1.58,.03,5.81-.09,11.63,.12,17.44,.23,6.41,1.83,11.99,4.79,16.74,1.02,1.63,5.15,8,12.98,11.73,2.51,1.19,4.67,1.77,7.07,2.42,2.87,.77,7.49,2.01,12.83,1.94,11.94-.14,20.53-6.71,22.75-8.46,3.72-2.93,5.93-5.8,6.61-6.71,2.96-3.97,4.48-7.8,5.29-10.39-1.97,3.45-6.84,10.87-16.18,15.83ZM51.58,32.8c.02-1.6,.86-2.44,2.54-2.43,8.7,.02,17.41,.04,26.12,0,1.84,0,2.64,.93,2.67,2.56,.07,3.6,.02,7.2,.02,11.19-10.53-2.39-20.88-2.53-31.37,.7,0-4.23-.03-8.12,.01-12.01Zm-6.35,21.63c4.59-3.92,10.15-5.64,15.96-6.38,8.85-1.13,17.55-.31,25.81,3.31,3.83,1.68,7.28,3.94,9.28,7.38-18.01-10.62-36.18-11.55-54.96-.28,1.39-1.46,2.54-2.88,3.9-4.04Zm-26.07,31.66c-1.36-1.26-2.51-2.34-4.08-3.8l6.87-6.69,4.79-1.14-.27,4.12-7.3,7.5Z"/>
      <path class="cls-5" d="M96.29,58.76c-18-10.62-36.18-11.55-54.95-.28,1.39-1.46,2.54-2.88,3.9-4.04,4.59-3.92,10.15-5.63,15.96-6.38,8.85-1.13,17.55-.31,25.82,3.32,3.83,1.68,7.27,3.94,9.28,7.38Z"/>
      <path class="cls-4" d="M57.58,70.77c3.38-.06,6.29,2.56,6.61,5.98,.14,1.5-.34,2.72-1.92,3.11-1.54,.38-2.77-.08-3.48-1.66-.27-.59-.75-1.08-1.13-1.62-.39,.52-.89,.99-1.14,1.57-.68,1.54-1.83,2.15-3.41,1.78-1.56-.37-2.09-1.58-2.03-3.07,.12-3.25,3.11-6.03,6.51-6.08Z"/>
      <path class="cls-4" d="M72.63,77.01c.02-3.35,3.03-6.19,6.56-6.2,3.49,0,6.48,2.91,6.48,6.28,0,1.45-.56,2.51-2.03,2.83-1.5,.32-2.59-.23-3.28-1.67-.3-.63-.86-1.13-1.31-1.69-.37,.55-.82,1.06-1.08,1.66-.63,1.46-1.7,2.06-3.22,1.77-1.61-.31-2.16-1.45-2.12-2.97Z"/>
      <path class="cls-2" d="M55.06,40.96v-5.39c-.01-.44,.11-.84,.37-1.2,.06-.09,.13-.16,.21-.21,.09-.05,.18-.09,.28-.1h22.49c.1,.01,.19,.05,.28,.1,.09,.06,.16,.12,.21,.21,.25,.36,.37,.76,.37,1.2v5.52c0,.09,0,.17,.03,.26,.02,.09,.04,.17,.07,.25,.03,.08,.07,.16,.12,.23,.05,.07,.1,.14,.16,.2s.13,.12,.2,.16c.07,.05,.15,.09,.23,.12,.08,.03,.16,.06,.25,.08,.09,.02,.17,.03,.26,.03s.17,0,.26-.03c.09-.02,.17-.04,.25-.08,.08-.03,.16-.07,.23-.12,.07-.05,.14-.1,.2-.16,.06-.06,.12-.13,.16-.2,.05-.07,.09-.15,.12-.23,.03-.08,.06-.16,.07-.25,.02-.09,.03-.17,.03-.26v-5.52c0-.51-.07-1-.23-1.49-.16-.48-.39-.93-.69-1.34-.15-.21-.32-.39-.51-.56-.19-.17-.4-.31-.63-.43-.22-.12-.46-.21-.71-.27-.25-.06-.5-.1-.75-.1h-22.49c-.26,0-.51,.04-.75,.1-.25,.06-.48,.15-.71,.27-.23,.12-.43,.26-.63,.43-.19,.17-.36,.35-.51,.56-.3,.41-.53,.85-.69,1.34-.16,.48-.23,.98-.23,1.49v5.39c0,.09,0,.17,.03,.26,.02,.09,.04,.17,.08,.25,.03,.08,.07,.16,.12,.23,.05,.07,.1,.14,.17,.2,.06,.06,.13,.12,.2,.16,.07,.05,.15,.09,.23,.12,.08,.03,.16,.06,.25,.08,.09,.02,.17,.03,.26,.03s.17,0,.26-.03c.09-.02,.17-.04,.25-.08,.08-.03,.16-.07,.23-.12,.07-.05,.14-.1,.2-.16,.06-.06,.12-.13,.17-.2,.05-.07,.09-.15,.12-.23,.03-.08,.06-.16,.08-.25,.02-.09,.03-.17,.03-.26Z"/>
    </g>
  </g>
</svg>