<?xml version="1.0" encoding="UTF-8"?>
<svg id="Layer_1" data-name="Layer 1" xmlns="http://www.w3.org/2000/svg" viewBox="0 0 138 41">
  <defs>
    <style>
      .cls-1 {
        fill: #FFB200;
        <!-- // yellow -->
        <!-- #FF4A52 default color -->
      }

      .cls-2, .cls-3 {
        fill-rule: evenodd;
      }

      .cls-2, .cls-4 {
        fill: #1e3050;   
        <!-- // blue -->
      }

      .cls-3, .cls-5 {
        fill: #008000;
        <!-- // green  -->
      }
    </style>
  </defs>
  <g>
    <g>
      <g>
        <path class="cls-5" d="M45.88,21.82c-.05,.1-.11,.19-.17,.28-1.22,1.9-3.38,2.76-5.54,2.69-.07,1.01-.15,2.02-.28,3.03-.05,.45-.58,.81-1.01,.59-.49-.25-.5-1.11-.6-1.58-.11-.53-.21-1.07-.28-1.61-.04-.28-.07-.56-.1-.84-.71-.21-1.75-.61-1.56-1.3,.14-.49,.86-.64,1.45-.62,0-.17,0-.34,0-.51,0-1.17,.03-2.01,.1-3,.05-.67,.1-1.23,.15-1.63-.08-.03-.29-.12-.41-.24-.02-.02-.04-.04-.05-.07-.03-.07-.02-.15,0-.24,.06-.26,.22-.51,.37-.72,.24-.32,.58-.54,.99-.57,1.36-.1,1.51,2.06,1.49,2.97-.04,1.49-.08,2.99-.15,4.48,.03,0,.05,0,.08-.01,1.07-.22,1.85-.64,2.59-1.45,1.16-1.25,1.53-3.31,.68-4.82-1.03-1.83-3.34-2.58-5.24-1.66-.95,.46-1.5,1.23-1.73,2.25-.12,.51-.1,.99-.06,1.5,.02,.3,.17,.7,.02,.99-.2,.38-.56,.14-.7-.14-.36-.74-.45-2.03-.28-2.81,.27-1.23,1.05-2.42,2.07-3.13,2.22-1.54,5.62-.98,7.41,.95,1.78,1.92,2.05,4.97,.77,7.25Z"/>
        <path class="cls-5" d="M55.54,23.56c-.54,1.73-1.31,3.66-2.57,3.66-.09,0-.69,0-1.05-.42-.48-.57-.67-1.28-.71-2.78-.17,.59-.33,1.15-.39,1.35-.27,.86-.67,1.81-1.73,1.78-1.26-.03-1.67-1.45-1.77-2.48-.13-1.26-.02-2.94,.24-4.2,.11-.52,.8-.81,1.25-.68,.58,.17,.71,.71,.62,1.26-.1,.63-.23,1.72-.29,2.35-.03,.37-.17,2.85,.76,2.18,.21-.15,.33-.41,.44-.64,.16-.35,.25-.72,.36-1.08,.24-.8,.4-1.63,.61-2.44,.15-.58,.23-1.3,.85-1.58,.04-.02,.08-.04,.12-.05,.28-.09,.97,.05,1.07,.67,.15,.89-.1,1.87-.37,4.19-.03,.24-.33,1.65,.08,1.78,.6,.19,1.21-.67,1.95-3.02,.04-.14,.19-.22,.34-.18,.14,.04,.22,.19,.18,.34Z"/>
        <path class="cls-5" d="M63.36,23.54c-.54,1.73-1.24,3.68-2.5,3.68-.09,0-.91,.07-1.26-.36-.55-.65-.66-1.54-.5-3.48,.06-.68,.38-2.54,0-2.18-.32,.3-.52,.74-.7,1.13-.26,.56-.47,1.14-.68,1.73-.21,.58-.4,1.17-.6,1.75-.08,.24-.36,1.41-1.1,1.32-.85-.1-1-1.36-1.06-2.16-.05-.78-.02-1.05-.02-1.83,0-.65,.1-1.48,.92-1.48,.51,0,1.1,.48,1.04,1.07-.04,.4-.04,.78-.02,1.15v.49c.37-1.08,.89-2.47,1.48-3.44,.56-.93,1.12-1.28,1.72-1.28,.29,0,.97,.19,1.17,.78,.28,.85-.1,1.87-.37,4.19-.03,.24-.33,1.65,.08,1.78,.6,.19,1.14-.69,1.88-3.05,.04-.14,.19-.22,.34-.18,.14,.04,.22,.19,.18,.34Z"/>
        <path class="cls-5" d="M71.2,23.54c-.54,1.73-1.24,3.68-2.5,3.68-.09,0-.91,.07-1.26-.36-.55-.65-.66-1.54-.5-3.48,.06-.68,.38-2.54,0-2.18-.32,.3-.52,.74-.7,1.13-.26,.56-.47,1.14-.68,1.73-.21,.58-.4,1.17-.6,1.75-.08,.24-.36,1.41-1.1,1.32-.85-.1-1-1.36-1.06-2.16-.05-.78-.02-1.05-.02-1.83,0-.65,.1-1.48,.92-1.48,.51,0,1.1,.48,1.04,1.07-.04,.4-.04,.78-.02,1.15v.49c.37-1.08,.89-2.47,1.48-3.44,.56-.93,1.12-1.28,1.72-1.28,.29,0,.97,.19,1.17,.78,.28,.85-.1,1.87-.37,4.19-.03,.24-.33,1.65,.08,1.78,.6,.19,1.14-.69,1.88-3.05,.04-.14,.19-.22,.34-.18,.14,.04,.22,.19,.18,.34Z"/>
        <path class="cls-5" d="M78.94,23.54c-.54,1.73-1.31,3.66-2.57,3.66-.09,0-.69,0-1.05-.42-.43-.5-.62-1.11-.69-2.28-.12,.58-.26,1.16-.59,1.67-.4,.63-.9,.99-1.67,1-.94,.01-1.77-1.19-1.77-2.91,0-.99,.17-2.77,1.11-3.8,.57-.64,1.52-.86,2.22-.71,.48,.11,.9,.44,1.08,.65,.19-.38,.42-.55,.67-.63,.28-.09,.97,.05,1.07,.67,.15,.89-.1,1.87-.37,4.19-.03,.24-.33,1.65,.08,1.78,.6,.19,1.21-.67,1.95-3.02,.04-.14,.19-.22,.34-.18,.14,.04,.22,.19,.18,.34Zm-4.33-1.92s-.6-.94-1.35-.4c-.32,.23-.64,1.24-.77,2.99-.04,.51-.02,1.24,.35,1.65,.51,.56,1.02-1.15,1.1-1.46,.28-1.08,.7-2.77,.67-2.78Z"/>
        <path class="cls-5" d="M86.71,23.71s-.81,.55-1.82,1.36c-.01,.54-.03,1.08-.05,1.61-.06,2.12-.63,6.18-3.51,5.4-1.28-.34-1.42-1.74-1.02-2.81,.49-1.34,1.6-2.38,2.62-3.33-.02-.73-.07-1.47-.09-2.22,0,.03,0-.08,0-.23-.26,.88-.78,2.41-1.05,2.82-.4,.63-.9,.99-1.67,1-.94,.01-1.77-1.19-1.77-2.91,0-.99,.17-2.77,1.11-3.8,.57-.64,1.52-.86,2.22-.71,.48,.11,.9,.44,1.08,.65,.06-.12,.12-.21,.18-.29,.48-.66,1.74-.56,1.84,.43,.13,1.2,.14,2.41,.12,3.63,.81-.61,1.43-1,1.5-1.05,.12-.08,.29-.05,.37,.07,.08,.12,.05,.29-.07,.37Zm-4.35-1.93s-.6-.94-1.35-.4c-.32,.23-.64,1.24-.77,2.99-.04,.51-.02,1.24,.35,1.65,.51,.56,1.02-1.15,1.1-1.46,.28-1.08,.7-2.77,.67-2.78Zm.6,5c-.48,.48-.95,.98-1.34,1.49-.24,.32-.42,.7-.51,1.1-.12,.53-.12,1.56,.73,1.33,.93-.26,.97-1.55,1.06-2.32,.06-.53,.07-1.06,.06-1.59Z"/>
        <path class="cls-5" d="M94.56,23.54c-.54,1.73-1.31,3.66-2.57,3.66-.09,0-.69,0-1.05-.42-.43-.5-.62-1.11-.69-2.28-.12,.58-.26,1.16-.59,1.67-.4,.63-.9,.99-1.67,1-.94,.01-1.77-1.19-1.77-2.91,0-.99,.17-2.77,1.11-3.8,.57-.64,1.52-.86,2.22-.71,.48,.11,.9,.44,1.08,.65,.19-.38,.42-.55,.67-.63,.28-.09,.97,.05,1.07,.67,.15,.89-.1,1.87-.37,4.19-.03,.24-.33,1.65,.08,1.78,.6,.19,1.21-.67,1.95-3.02,.04-.14,.19-.22,.34-.18,.14,.04,.22,.19,.18,.34Zm-4.33-1.92s-.6-.94-1.35-.4c-.32,.23-.64,1.24-.77,2.99-.04,.51-.02,1.24,.35,1.65,.51,.56,1.02-1.15,1.1-1.46,.28-1.08,.7-2.77,.67-2.78Z"/>
        <path class="cls-5" d="M98.48,23.56c-.54,1.73-1.31,3.66-2.57,3.66-.09,0-.9,.05-1.26-.35-.35-.39-.68-.72-.68-2.49,0-1.18,.19-2.78,.45-3.61,.2-.65,.49-.88,.81-.99,.28-.09,.97,.05,1.07,.67,.15,.89-.1,1.87-.37,4.19-.03,.24-.33,1.65,.08,1.78,.6,.19,1.21-.67,1.95-3.02,.04-.14,.19-.22,.34-.18,.14,.04,.22,.19,.18,.34Zm-4.06-4.84c-.1-.34-.02-.72,.24-1.01,.37-.4,.99-.52,1.46-.24,.42,.24,.66,.76,.53,1.24-.22,.82-1.27,1.12-1.9,.55-.17-.15-.28-.34-.33-.53Z"/>
      </g>
      <g>
        <path class="cls-1" d="M108.77,18.04c-.28,.24-.66,.36-1.02,.43-.76,.14-1.54,.07-2.3,.04-.05,0-.1,0-.15,0,.03,.15,.04,.3,.04,.43,.05,1.66,.07,3.38-.12,5.03-.16,1.37-.15,2.81-.47,4.16-.14,.58-.93,.39-.99-.13-.28-2.55-.45-5.19-.41-7.75,0-.37,0-.83,.06-1.28,.03-.19,.07-.37,.12-.54-.21,0-.42,0-.63,0-.45,0-.9,.02-1.34,.1-.44,.07-.86,.21-1.31,.25-.63,.06-.75-.79-.3-1.09,.63-.41,1.5-.48,2.23-.55,.75-.07,1.51-.04,2.26-.02,1.03,.04,2.03,.13,3.07,.07,.24-.01,.49-.02,.71-.13,.18-.09,.32-.27,.54-.3,.22-.03,.45,.17,.47,.39,.03,.33-.22,.7-.46,.9Z"/>
        <path class="cls-1" d="M112.25,24.82c-.4,1.29-.98,2.72-1.92,2.72-.07,0-.83,.03-1.09-.29-.41-.48-.39-.82-.38-1.41,0-.67,.13-1.73,.21-2.39-.01,0-.03,.02-.05,.03-.37,.24-.85,.36-1.26,.3-.09,.34-.19,.7-.3,1.04-.03,.09-.11,.14-.19,.14-.02,0-.04,0-.06,0-.11-.03-.16-.14-.13-.25,.11-.35,.21-.71,.3-1.05-.3-.17-.49-.49-.4-1.02,.18-1.14,1.33-1.47,1.11-.15-.01,.08,.04,.14,.11,.17,.38,.18,.8,0,1.24-.39,.23-.21,.81-.4,1.1,.03,.32,.48,.13,1.19,.06,1.71-.1,.76-.23,1.52-.34,2.28-.03,.18-.08,.6,.16,.68,.44,.14,.9-.5,1.45-2.25,.03-.11,.15-.16,.25-.13,.11,.03,.16,.14,.13,.25Z"/>
        <path class="cls-1" d="M118.03,24.8c-.4,1.29-.98,2.72-1.92,2.72-.07,0-.51,0-.78-.32-.32-.38-.46-.83-.51-1.7-.09,.43-.2,.86-.44,1.25-.3,.47-.67,.73-1.24,.74-.7,0-1.32-.88-1.32-2.17,0-.74,.13-2.06,.82-2.83,.43-.47,1.13-.64,1.66-.53,.36,.08,.67,.33,.81,.49,.14-.28,.31-.41,.5-.47,.21-.07,.72,.04,.8,.5,.11,.66-.07,1.39-.27,3.12-.02,.18-.24,1.23,.06,1.33,.44,.14,.9-.5,1.45-2.25,.03-.11,.14-.16,.25-.13,.11,.03,.16,.14,.13,.25Zm-3.22-1.43s-.44-.7-1-.3c-.24,.17-.48,.92-.57,2.23-.03,.38-.02,.93,.26,1.23,.38,.41,.76-.86,.82-1.09,.21-.81,.52-2.07,.5-2.07Z"/>
        <path class="cls-1" d="M122.49,24.89c-.34,.38-.72,.96-1.45,.83-.09-.02-.23-.07-.3-.12-.1,.42-.25,.87-.48,1.24-.28,.47-.9,.97-1.47,.64-.49-.29-.7-.94-.85-1.46-.17-.59-.33-1.38-.39-1.99-.04-.43-.14-.92-.03-1.34,.04-.15,.11-.28,.22-.39,.22-.22,.66-.36,.92-.11,.19,.18,.21,.5,.24,.74,.06,.5,.08,1.01,.09,1.52,.01,.54,.17,1.76,.26,1.94,.22,.46,.44,.2,.69-.43,.19-.49,.15-.84,.16-.85-.02-.03-.03-.06-.05-.09-.22-.5-.31-1.15-.3-1.69,0-.53,.14-1.17,.76-1.31,.13-.03,.28,0,.37,.1,.08,.09,.1,.22,.11,.33,.08,.79,.05,1.58-.09,2.36-.03,.14-.05,.24-.08,.38,0,.01,.07,.07,.07,.08,.04,.03,.1,.06,.15,.08,.1,.04,.2,.04,.3,.01,.19-.06,.35-.21,.49-.35,.12-.12,.23-.26,.35-.39,.07-.08,.2-.09,.28-.02,.08,.07,.09,.2,.02,.28Z"/>
        <path class="cls-1" d="M126.83,24.82c-.11,.36-.24,.73-.38,1.08-.18,.44-.39,.9-.73,1.24-.5,.5-1.35,.6-2.01,.4-.92-.28-1.5-1.28-1.6-2.18-.14-1.19,.4-3.14,1.86-3.33,1.35-.18,1.69,1.42,1.35,2.42-.16,.47-.49,.89-1.01,.98-.25,.04-.48-.02-.65-.11,.01,.15,.05,.31,.08,.42,0,.02,0,.04,.01,.05,.09,.39,.32,.8,.66,1.01,.29,.19,.69,.17,.98-.01,.26-.16,.4-.43,.53-.69,.22-.45,.38-.92,.53-1.4,.03-.11,.14-.16,.25-.13,.11,.03,.16,.14,.13,.25Zm-3.23,0c.73,.04,1.18-.58,1.07-1.27-.05-.34-.29-.72-.63-.39-.4,.39-.45,1.14-.44,1.66Z"/>
        <path class="cls-1" d="M130.66,24.82c-.04,.12-.08,.24-.12,.37-.21,.63-.45,1.29-.87,1.82-.16,.2-.36,.39-.6,.48-.31,.12-.71,.08-1.01-.04-.52-.2-.89-.66-1.14-1.15-.25-.49-.41-1.04-.46-1.59-.03-.34-.05-.69-.06-1.03-.03-1.54,.03-3.09,.33-4.61,.15-.77,.43-1.71,1.31-1.91,.72-.17,1.21,.59,1.36,1.19,.21,.87,.07,1.83-.09,2.7-.16,.92-.35,1.82-.7,2.69-.16,.38-.33,.82-.56,1.19,0,.01,0,.02,0,.04,.03,.23,.04,.46,.07,.69,.05,.38,.14,.96,.58,1.07,.41,.11,.87-.24,1.03-.59,.07-.14,.13-.27,.18-.41,.14-.33,.25-.68,.36-1.02,.03-.11,.14-.16,.25-.13,.11,.03,.16,.14,.13,.25Zm-2.62-1.24c.23-.75,.4-1.51,.47-2.28,.06-.63,.09-1.3-.02-1.93-.01-.08-.03-.16-.05-.24-.28,1.28-.34,2.66-.41,3.96,0,.2-.02,.4-.02,.6,.01-.04,.02-.07,.04-.11Z"/>
        <path class="cls-1" d="M135.17,24.79c-.02,.11-.13,.18-.23,.16-.39-.08-.79-.1-1.19-.06-.09,0-.23,.02-.4,.05,.24,.19,.43,.44,.51,.74,.23,.92-.63,1.84-1.48,2.03-.36,.08-.73,.06-1.06-.05-.13-.05-.25-.11-.36-.2-.24-.19-.39-.48-.41-.79-.02-.36,.19-.65,.42-.91,.02-.03,.25-.24,.27-.23-1.18-.51-1.56-1.84-.56-2.92,.58-.62,1.85-.82,2.58-.42,.82,.45,.74,1.68-.26,1.97-.1,.03-.24-.08-.17-.17,.3-.37,.23-.99-.21-1.09-.29-.06-.54,0-.78,.19-.3,.25-.3,.84,.08,1.07,.29,.18,.63,.31,.94,.47,.38-.1,.69-.13,.85-.14,.43-.04,.87-.01,1.29,.07,.11,.02,.18,.13,.16,.23Zm-2.81,1.57c0-.25-.35-.42-.81-.62-.22,.2-.37,.43-.4,.47-.02,.04-.04,.09-.04,.14,0,.14,.09,.26,.22,.34,.28,.18,.65,.19,.89-.05,.04-.04,.13-.14,.14-.28Z"/>
      </g>
    </g>
    <!-- <g>
      <path class="cls-4" d="M91.58,33.73s-.02,.04-.03,.06c-.24,.38-.67,.55-1.09,.53-.01,.2-.03,.4-.05,.6-.01,.09-.11,.16-.2,.12-.1-.05-.1-.22-.12-.31-.02-.11-.04-.21-.06-.32,0-.06-.01-.11-.02-.17-.14-.04-.35-.12-.31-.26,.03-.1,.17-.13,.29-.12,0-.03,0-.07,0-.1,0-.23,0-.4,.02-.59,0-.13,.02-.24,.03-.32-.02,0-.06-.02-.08-.05,0,0,0,0-.01-.01,0-.01,0-.03,0-.05,.01-.05,.04-.1,.07-.14,.05-.06,.12-.11,.19-.11,.27-.02,.3,.41,.29,.59,0,.29-.02,.59-.03,.88,0,0,.01,0,.02,0,.21-.04,.36-.13,.51-.29,.23-.25,.3-.65,.13-.95-.2-.36-.66-.51-1.03-.33-.19,.09-.3,.24-.34,.44-.02,.1-.02,.2-.01,.3,0,.06,.03,.14,0,.2-.04,.07-.11,.03-.14-.03-.07-.15-.09-.4-.05-.56,.05-.24,.21-.48,.41-.62,.44-.3,1.11-.19,1.46,.19,.35,.38,.41,.98,.15,1.43Z"/>
      <path class="cls-4" d="M92.98,34.08s-.02,.06-.03,.1c-.06,.17-.12,.34-.23,.48-.04,.05-.1,.1-.16,.13-.08,.03-.19,.02-.27-.01-.14-.05-.24-.18-.3-.3-.07-.13-.11-.28-.12-.42,0-.09-.01-.18-.01-.27,0-.41,0-.82,.09-1.22,.04-.2,.12-.45,.35-.51,.19-.04,.32,.16,.36,.32,.06,.23,.02,.49-.02,.71-.04,.24-.09,.48-.19,.71-.04,.1-.09,.22-.15,.32,0,0,0,0,0,0,0,.06,.01,.12,.02,.18,.01,.1,.04,.25,.15,.28,.11,.03,.23-.06,.27-.16,.02-.04,.03-.07,.05-.11,.04-.09,.07-.18,.1-.27,0-.03,.04-.04,.07-.03s.04,.04,.03,.07Zm-.69-.33c.06-.2,.11-.4,.12-.6,.02-.17,.02-.34,0-.51,0-.02,0-.04-.01-.06-.07,.34-.09,.71-.11,1.05,0,.05,0,.11,0,.16,0,0,0-.02,0-.03Z"/>
      <path class="cls-4" d="M94.51,34.07c-.11,.34-.26,.72-.51,.72-.02,0-.14,0-.21-.08-.08-.1-.12-.22-.14-.45-.02,.12-.05,.23-.12,.33-.08,.12-.18,.19-.33,.2-.19,0-.35-.23-.35-.57,0-.2,.03-.55,.22-.75,.11-.13,.3-.17,.44-.14,.09,.02,.18,.09,.21,.13,.04-.08,.08-.11,.13-.12,.05-.02,.19,.01,.21,.13,.03,.18-.02,.37-.07,.83,0,.05-.06,.33,.02,.35,.12,.04,.24-.13,.38-.6,0-.03,.04-.04,.07-.03,.03,0,.04,.04,.03,.07Zm-.85-.38s-.12-.19-.27-.08c-.06,.05-.13,.24-.15,.59,0,.1,0,.25,.07,.33,.1,.11,.2-.23,.22-.29,.06-.21,.14-.55,.13-.55Z"/>
      <path class="cls-4" d="M96.06,34.07c-.11,.34-.25,.73-.49,.73-.02,0-.18,.01-.25-.07-.11-.13-.13-.3-.1-.69,.01-.13,.08-.5,0-.43-.06,.06-.1,.15-.14,.22-.05,.11-.09,.23-.13,.34-.04,.11-.08,.23-.12,.35-.02,.05-.07,.28-.22,.26-.17-.02-.2-.27-.21-.43-.01-.15,0-.21,0-.36,0-.13,.02-.29,.18-.29,.1,0,.22,.1,.2,.21,0,.08,0,.15,0,.23v.1c.07-.21,.18-.49,.29-.68,.11-.18,.22-.25,.34-.25,.06,0,.19,.04,.23,.15,.06,.17-.02,.37-.07,.83,0,.05-.06,.33,.02,.35,.12,.04,.22-.14,.37-.6,0-.03,.04-.04,.07-.03,.03,0,.04,.04,.03,.07Z"/>
      <path class="cls-4" d="M97.6,34.07c-.11,.34-.25,.73-.49,.73-.02,0-.18,.01-.25-.07-.11-.13-.13-.3-.1-.69,.01-.13,.08-.5,0-.43-.06,.06-.1,.15-.14,.22-.05,.11-.09,.23-.13,.34-.04,.11-.08,.23-.12,.35-.02,.05-.07,.28-.22,.26-.17-.02-.2-.27-.21-.43-.01-.15,0-.21,0-.36,0-.13,.02-.29,.18-.29,.1,0,.22,.1,.2,.21,0,.08,0,.15,0,.23v.1c.07-.21,.18-.49,.29-.68,.11-.18,.22-.25,.34-.25,.06,0,.19,.04,.23,.15,.06,.17-.02,.37-.07,.83,0,.05-.06,.33,.02,.35,.12,.04,.22-.14,.37-.6,0-.03,.04-.04,.07-.03,.03,0,.04,.04,.03,.07Z"/>
      <path class="cls-4" d="M98.38,34.08c-.11,.34-.26,.72-.51,.72-.02,0-.18,0-.25-.07-.07-.08-.13-.14-.13-.49,0-.23,.04-.55,.09-.71,.04-.13,.1-.17,.16-.19,.05-.02,.19,.01,.21,.13,.03,.18-.02,.37-.07,.83,0,.05-.06,.33,.02,.35,.12,.04,.24-.13,.38-.6,0-.03,.04-.04,.07-.03,.03,0,.04,.04,.03,.07Zm-.8-.96c-.02-.07,0-.14,.05-.2,.07-.08,.19-.1,.29-.05,.08,.05,.13,.15,.11,.24-.04,.16-.25,.22-.38,.11-.03-.03-.06-.07-.07-.11Z"/>
      <path class="cls-4" d="M99.92,34.07c-.11,.34-.25,.73-.49,.73-.02,0-.18,.01-.25-.07-.11-.13-.13-.3-.1-.69,.01-.13,.08-.5,0-.43-.06,.06-.1,.15-.14,.22-.05,.11-.09,.23-.13,.34-.04,.11-.08,.23-.12,.35-.02,.05-.07,.28-.22,.26-.17-.02-.2-.27-.21-.43-.01-.15,0-.21,0-.36,0-.13,.02-.29,.18-.29,.1,0,.22,.1,.2,.21,0,.08,0,.15,0,.23v.1c.07-.21,.18-.49,.29-.68,.11-.18,.22-.25,.34-.25,.06,0,.19,.04,.23,.15,.06,.17-.02,.37-.07,.83,0,.05-.06,.33,.02,.35,.12,.04,.22-.14,.37-.6,0-.03,.04-.04,.07-.03,.03,0,.04,.04,.03,.07Z"/>
      <path class="cls-4" d="M101.46,34.11s-.16,.11-.36,.27c0,.11,0,.21,0,.32-.01,.42-.13,1.22-.69,1.07-.25-.07-.28-.34-.2-.56,.1-.26,.31-.47,.52-.66,0-.14-.01-.29-.02-.44,0,0,0-.02,0-.05-.05,.17-.15,.48-.21,.56-.08,.12-.18,.19-.33,.2-.19,0-.35-.23-.35-.57,0-.19,.03-.55,.22-.75,.11-.13,.3-.17,.44-.14,.09,.02,.18,.09,.21,.13,.01-.02,.02-.04,.04-.06,.09-.13,.34-.11,.36,.09,.02,.24,.03,.48,.02,.72,.16-.12,.28-.2,.3-.21,.02-.02,.06,0,.07,.01,.02,.02,0,.06-.01,.07Zm-.86-.38s-.12-.19-.27-.08c-.06,.05-.13,.24-.15,.59,0,.1,0,.25,.07,.33,.1,.11,.2-.23,.22-.29,.06-.21,.14-.55,.13-.55Zm.12,.99c-.1,.09-.19,.19-.26,.29-.05,.06-.08,.14-.1,.22-.02,.1-.02,.31,.14,.26,.18-.05,.19-.31,.21-.46,.01-.1,.01-.21,.01-.31Z"/>
      <path class="cls-4" d="M103.96,34.07c-.11,.34-.26,.72-.51,.72-.02,0-.14,0-.21-.08-.08-.1-.12-.22-.14-.45-.02,.12-.05,.23-.12,.33-.08,.12-.18,.19-.33,.2-.19,0-.35-.23-.35-.57,0-.2,.03-.55,.22-.75,.11-.13,.3-.17,.44-.14,.09,.02,.18,.09,.21,.13,.04-.08,.08-.11,.13-.12,.05-.02,.19,.01,.21,.13,.03,.18-.02,.37-.07,.83,0,.05-.06,.33,.02,.35,.12,.04,.24-.13,.38-.6,0-.03,.04-.04,.07-.03,.03,0,.04,.04,.03,.07Zm-.85-.38s-.12-.19-.27-.08c-.06,.05-.13,.24-.15,.59,0,.1,0,.25,.07,.33,.1,.11,.2-.23,.22-.29,.06-.21,.14-.55,.13-.55Z"/>
      <path class="cls-4" d="M105.73,34.08c-.11,.34-.26,.72-.51,.72-.02,0-.2,.01-.29-.08-.11-.13-.13-.29-.13-.68,0-.12,0-.35,0-.57-.06,0-.13,0-.19-.02-.14-.01-.13-.2,.01-.21,.06,0,.12,0,.19-.01,0-.13,.01-.19,.03-.25,.04-.13,.11-.17,.17-.19,.05-.02,.19,.01,.21,.13,.01,.06,0,.14,0,.31,.07,0,.14,0,.2,.02,.14,.01,.13,.2-.01,.21-.07,0-.14,0-.21,.01-.02,.26-.04,.57-.05,.81,0,.05,0,.33,.08,.35,.12,.04,.24-.13,.38-.6,0-.03,.04-.04,.07-.03,.03,0,.04,.04,.03,.07Z"/>
      <path class="cls-4" d="M107,34.08c-.11,.34-.26,.72-.51,.72-.02,0-.22,0-.29-.08-.11-.13-.1-.22-.1-.37,0-.18,.03-.46,.06-.63,0,0,0,0-.01,0-.1,.06-.23,.09-.33,.08-.02,.09-.05,.18-.08,.28,0,.02-.03,.04-.05,.04,0,0-.01,0-.02,0-.03,0-.04-.04-.03-.07,.03-.09,.06-.19,.08-.28-.08-.04-.13-.13-.11-.27,.05-.3,.35-.39,.29-.04,0,.02,.01,.04,.03,.04,.1,.05,.21,0,.33-.1,.06-.06,.22-.11,.29,0,.08,.13,.04,.32,.02,.45-.03,.2-.06,.4-.09,.6,0,.05-.02,.16,.04,.18,.12,.04,.24-.13,.38-.6,0-.03,.04-.04,.07-.03s.04,.04,.03,.07Z"/>
      <path class="cls-4" d="M107.78,34.08c-.11,.34-.26,.72-.51,.72-.02,0-.18,0-.25-.07-.07-.08-.13-.14-.13-.49,0-.23,.04-.55,.09-.71,.04-.13,.1-.17,.16-.19,.05-.02,.19,.01,.21,.13,.03,.18-.02,.37-.07,.83,0,.05-.06,.33,.02,.35,.12,.04,.24-.13,.38-.6,0-.03,.04-.04,.07-.03,.03,0,.04,.04,.03,.07Zm-.8-.96c-.02-.07,0-.14,.05-.2,.07-.08,.19-.1,.29-.05,.08,.05,.13,.15,.11,.24-.04,.16-.25,.22-.38,.11-.03-.03-.06-.07-.07-.11Z"/>
      <path class="cls-4" d="M109.33,34.08s-.03,.05-.06,.05c0,0-.14-.02-.32,0-.03,.18-.11,.36-.23,.49-.11,.13-.28,.19-.45,.18-.06,0-.12-.02-.17-.06,0,0,0,0,0,.01,0,.2-.03,.4-.06,.6-.02,.15-.03,.4-.19,.48-.05,.02-.09,.02-.13-.02-.14-.1-.09-.36-.09-.51,0-.19,.01-.38,.02-.57,.02-.39,.02-.78,0-1.17,0-.28,.42-.27,.44,0,0,.1,0,.37,0,.47,.02-.11,.1-.4,.16-.5,.08-.12,.14-.19,.29-.19,.18,0,.31,.14,.37,.3,.04,.12,.06,.25,.05,.38,.18-.01,.31,0,.32,0,.03,0,.05,.03,.05,.06Zm-1.16,.22s0,.02,0,.02c.09-.09,.2-.16,.31-.2,.02-.09,.02-.18,0-.28,0-.04-.03-.22-.1-.2-.04,.01-.06,.08-.08,.11-.02,.04-.03,.09-.04,.13-.03,.13-.06,.27-.1,.4Zm.27-.04c-.09,.05-.17,.11-.24,.19,.05,.03,.08,.05,.14,0,.05-.05,.08-.12,.1-.19Z"/>
      <path class="cls-4" d="M109.21,32.32c.07-.12,.16-.21,.28-.28,.12-.07,.27-.1,.43-.1,.28,0,.5,.07,.66,.2,.16,.13,.24,.32,.24,.55,0,.11-.02,.21-.06,.29-.04,.08-.09,.16-.15,.23-.06,.07-.13,.14-.2,.2-.07,.06-.13,.13-.19,.2-.06,.07-.11,.14-.15,.22-.02,.05-.04,.09-.05,.14s-.02,.09-.02,.14,.03,.1,.06,.15l-.03,.02c-.08-.06-.15-.13-.19-.21-.04-.08-.06-.16-.05-.24,0-.08,.02-.15,.06-.22,.04-.07,.09-.14,.14-.2,.06-.07,.11-.13,.17-.2,.06-.07,.1-.15,.14-.23,.04-.09,.06-.18,.06-.29,0-.19-.04-.34-.13-.44s-.21-.15-.36-.15c-.17,0-.3,.06-.39,.17s-.14,.28-.14,.5h-.04l-.08-.43Zm.76,2.76c-.06,0-.12-.02-.17-.07-.05-.04-.07-.1-.07-.17s.02-.12,.07-.17c.05-.05,.1-.07,.17-.07s.12,.02,.17,.07,.07,.1,.07,.17-.02,.12-.07,.17c-.05,.05-.1,.07-.17,.07Z"/>
      <path class="cls-4" d="M113.74,32.5c-.05-.22-.39-.17-.54-.11-.18,.07-.36,.19-.48,.35-.29,.41,.2,.71,.52,.87,.36,.18,.78,.45,.75,.91-.01,.24-.15,.47-.39,.55-.27,.08-.56-.06-.78-.21-.18-.12-.33-.29-.41-.49-.05-.12,.14-.21,.21-.12,.18,.21,.49,.55,.81,.48,.19-.05,.12-.27,.04-.39-.13-.18-.38-.27-.57-.38-.2-.11-.4-.22-.55-.39-.34-.39-.27-.93,.11-1.27,.34-.3,.88-.48,1.31-.26,.18,.09,.3,.29,.28,.5-.02,.13-.1,.24-.2,.32-.07,.06-.15,.1-.23,.14-.06,.03-.15,.08-.22,.04-.01,0-.02-.02-.03-.03-.05-.12,.18-.22,.25-.27,.07-.05,.14-.13,.12-.22Z"/>
      <path class="cls-4" d="M115.87,34.08s-.03,.05-.06,.05c0,0-.14-.02-.32,0-.03,.18-.11,.36-.23,.49-.11,.13-.28,.19-.45,.18-.06,0-.12-.02-.17-.06,0,0,0,0,0,.01,0,.2-.03,.4-.06,.6-.02,.15-.03,.4-.19,.48-.05,.02-.09,.02-.13-.02-.14-.1-.09-.36-.09-.51,0-.19,.01-.38,.02-.57,.02-.39,.02-.78,0-1.17,0-.28,.42-.27,.44,0,0,.1,0,.37,0,.47,.02-.11,.1-.4,.16-.5,.08-.12,.14-.19,.29-.19,.18,0,.31,.14,.37,.3,.04,.12,.06,.25,.05,.38,.18-.01,.31,0,.32,0,.03,0,.05,.03,.05,.06Zm-1.16,.22s0,.02,0,.02c.09-.09,.2-.16,.31-.2,.02-.09,.02-.18,0-.28,0-.04-.03-.22-.1-.2-.04,.01-.06,.08-.08,.11-.02,.04-.03,.09-.04,.13-.03,.13-.06,.27-.1,.4Zm.27-.04c-.09,.05-.17,.11-.24,.19,.05,.03,.08,.05,.14,0,.05-.05,.08-.12,.1-.19Z"/>
      <path class="cls-4" d="M117.01,34.08c-.03,.1-.06,.19-.1,.29-.05,.12-.1,.24-.19,.33-.13,.13-.36,.16-.53,.11-.24-.08-.4-.34-.43-.58-.04-.32,.11-.83,.49-.88,.36-.05,.45,.38,.36,.64-.04,.12-.13,.24-.27,.26-.07,.01-.13,0-.17-.03,0,.04,.01,.08,.02,.11,0,0,0,0,0,.01,.02,.1,.09,.21,.18,.27,.08,.05,.18,.04,.26,0,.07-.04,.11-.12,.14-.18,.06-.12,.1-.24,.14-.37,0-.03,.04-.04,.07-.03s.04,.04,.03,.07Zm-.86,0c.19,0,.31-.15,.28-.34-.01-.09-.08-.19-.17-.1-.11,.1-.12,.3-.12,.44Z"/>
      <path class="cls-4" d="M118.54,34.07c-.11,.34-.26,.72-.51,.72-.02,0-.14,0-.21-.08-.08-.1-.12-.22-.14-.45-.02,.12-.05,.23-.12,.33-.08,.12-.18,.19-.33,.2-.19,0-.35-.23-.35-.57,0-.2,.03-.55,.22-.75,.11-.13,.3-.17,.44-.14,.09,.02,.18,.09,.21,.13,.04-.08,.08-.11,.13-.12,.05-.02,.19,.01,.21,.13,.03,.18-.02,.37-.07,.83,0,.05-.06,.33,.02,.35,.12,.04,.24-.13,.38-.6,0-.03,.04-.04,.07-.03,.03,0,.04,.04,.03,.07Zm-.85-.38s-.12-.19-.27-.08c-.06,.05-.13,.24-.15,.59,0,.1,0,.25,.07,.33,.1,.11,.2-.23,.22-.29,.06-.21,.14-.55,.13-.55Z"/>
      <path class="cls-4" d="M119.97,34.08c-.11,.34-.26,.72-.51,.72-.02,0-.3,.05-.45-.11-.08-.08-.14-.19-.18-.31,0,.04-.03,.16-.04,.22-.02,.08-.09,.19-.18,.2-.21,.02-.2-.3-.19-.44,.01-.28,.02-.55,.03-.83,.01-.44,.02-.88,0-1.32,0-.28,.42-.27,.44,0,.02,.45,.02,.89,0,1.34,0,.08,0,.15-.01,.23,.02-.03,.04-.06,.07-.09,.11-.14,.42-.51,.64-.34,.2,.14-.04,.4-.16,.49-.1,.08-.21,.15-.33,.21,0,0,0,0,0,.02,.08,.42,.3,.53,.38,.56,.12,.04,.24-.13,.38-.6,0-.03,.04-.04,.07-.03,.03,0,.04,.04,.03,.07Zm-.92-.22c.23-.12,.5-.29,.43-.36-.06-.06-.26,.15-.29,.19-.05,.05-.1,.11-.14,.17Z"/>
      <path class="cls-4" d="M121.75,34.08c-.11,.34-.26,.72-.51,.72-.02,0-.2,.01-.29-.08-.11-.13-.13-.29-.13-.68,0-.12,0-.35,0-.57-.06,0-.13,0-.19-.02-.14-.01-.13-.2,.01-.21,.06,0,.12,0,.19-.01,0-.13,.01-.19,.03-.25,.04-.13,.11-.17,.17-.19,.05-.02,.19,.01,.21,.13,.01,.06,0,.14,0,.31,.07,0,.14,0,.2,.02,.14,.01,.13,.2-.01,.21-.07,0-.14,0-.21,.01-.02,.26-.04,.57-.05,.81,0,.05,0,.33,.08,.35,.12,.04,.24-.13,.38-.6,0-.03,.04-.04,.07-.03,.03,0,.04,.04,.03,.07Z"/>
      <path class="cls-4" d="M122.96,34.02s.02,.05,0,.07c-.05,.06-.19,.19-.4,.23-.06,.21-.18,.47-.42,.5-.23,.03-.46-.18-.51-.4-.05-.23,0-.5,.12-.71,0,0,0,0,0,0,0-.16,.11-.35,.32-.4,.36-.09,.49,.36,.51,.64,0,.09,0,.18-.01,.27,.15-.04,.25-.14,.3-.19,.02-.02,.05-.02,.07,0Zm-.62,.32c-.09-.01-.21-.06-.29-.11-.01,.04-.02,.13-.01,.17,.03,.12,.11,.15,.21,.08,.05-.04,.09-.14,.09-.14Zm-.29-.7s.06,.05,.08,.08c.05,.08,.03,.15,0,.23-.02,.04-.03,.09-.05,.13,.02,.02,.04,.03,.06,.04,.07,.05,.15,.08,.23,.1,.03-.11,.03-.24,.01-.35-.01-.07-.04-.15-.08-.2-.05-.06-.13-.09-.2-.07-.02,0-.04,.02-.06,.04Z"/>
      <path class="cls-4" d="M125.44,34.08c-.11,.34-.26,.72-.51,.72-.02,0-.14,0-.21-.08-.1-.11-.13-.25-.14-.55-.03,.12-.06,.23-.08,.27-.05,.17-.13,.36-.34,.35-.25,0-.33-.29-.35-.49-.03-.25,0-.58,.05-.83,.02-.1,.16-.16,.25-.13,.11,.03,.14,.14,.12,.25-.02,.12-.05,.34-.06,.47,0,.07-.03,.56,.15,.43,.04-.03,.07-.08,.09-.13,.03-.07,.05-.14,.07-.21,.05-.16,.08-.32,.12-.48,.03-.11,.05-.26,.17-.31,0,0,.02,0,.02,0,.05-.02,.19,.01,.21,.13,.03,.18-.02,.37-.07,.83,0,.05-.06,.33,.02,.35,.12,.04,.24-.13,.38-.6,0-.03,.04-.04,.07-.03,.03,0,.04,.04,.03,.07Z"/>
      <path class="cls-4" d="M126.64,34.07s-.03,.05-.06,.04c-.1-.02-.21-.03-.31-.02-.02,0-.06,0-.11,.01,.06,.05,.11,.12,.13,.2,.06,.24-.17,.49-.39,.54-.09,.02-.19,.02-.28-.01-.03-.01-.07-.03-.09-.05-.06-.05-.1-.13-.11-.21,0-.1,.05-.17,.11-.24,0,0,.07-.06,.07-.06-.31-.13-.41-.49-.15-.78,.15-.17,.49-.22,.68-.11,.22,.12,.2,.44-.07,.52-.03,0-.06-.02-.04-.04,.08-.1,.06-.26-.06-.29-.08-.02-.14,0-.21,.05-.08,.07-.08,.22,.02,.29,.08,.05,.17,.08,.25,.12,.1-.03,.18-.03,.23-.04,.11,0,.23,0,.34,.02,.03,0,.05,.03,.04,.06Zm-.75,.42c0-.07-.09-.11-.21-.17-.06,.05-.1,.11-.1,.12,0,.01-.01,.02-.01,.04,0,.04,.02,.07,.06,.09,.07,.05,.17,.05,.24-.01,0,0,.04-.04,.04-.07Z"/>
      <path class="cls-4" d="M129.86,32.16c-.12,.14-.29,.22-.47,.27-.01,0-.03,0-.04,.01-.21,.06-.43,.07-.65,.06-.09,0-.17-.02-.26-.04,.06,.05,.09,.14,.12,.21,.04,.14,.04,.29,.03,.44,0,.17-.01,.35-.02,.52,.09,0,.18,0,.27-.01,.11,0,.36-.03,.38,.12,0,.07-.02,.12-.08,.15-.16,.07-.36,.07-.53,.08-.01,0-.03,0-.05,0-.01,.32-.03,.64-.07,.95-.02,.14-.22,.19-.26,.03-.09-.32-.13-.65-.15-.99-.04,0-.07,0-.11-.01-.14-.02-.13-.23,0-.26,.03,0,.07-.02,.1-.02,0-.19,0-.38,.02-.56,0-.11,.02-.21,.04-.32-.02,0-.04,0-.06-.02,0,0-.01,0,0-.02,.01-.09,.01-.16,.06-.24,.03-.05,.08-.08,.13-.1-.07-.02-.13-.05-.2-.07-.09-.03-.18-.08-.27-.08-.08,0-.14,.06-.15,.14,0,.09,.05,.17,.11,.23,.03,.04,.07,.07,.11,.1,0,0,.02,.02,.03,.02,.04,.05,0,.09-.05,.09-.16,.02-.33-.11-.4-.24-.08-.13-.09-.3-.01-.44,.21-.37,.64-.13,.93-.04,.18,.05,.39,.08,.59,.07,0-.04,.03-.08,.08-.11,.17-.1,.33-.21,.51-.28,.09-.03,.21-.07,.3-.02,.14,.07,.09,.26,0,.36Z"/>
      <path class="cls-4" d="M130.31,34.08c-.11,.34-.26,.72-.51,.72-.02,0-.18,0-.25-.07-.07-.08-.13-.14-.13-.49,0-.23,.04-.55,.09-.71,.04-.13,.1-.17,.16-.19,.05-.02,.19,.01,.21,.13,.03,.18-.02,.37-.07,.83,0,.05-.06,.33,.02,.35,.12,.04,.24-.13,.38-.6,0-.03,.04-.04,.07-.03,.03,0,.04,.04,.03,.07Zm-.8-.96c-.02-.07,0-.14,.05-.2,.07-.08,.19-.1,.29-.05,.08,.05,.13,.15,.11,.24-.04,.16-.25,.22-.38,.11-.03-.03-.06-.07-.07-.11Z"/>
      <path class="cls-4" d="M131.57,34.08c-.11,.34-.26,.72-.51,.72-.02,0-.22,0-.29-.08-.11-.13-.1-.22-.1-.37,0-.18,.03-.46,.06-.63,0,0,0,0-.01,0-.1,.06-.23,.09-.33,.08-.02,.09-.05,.18-.08,.28,0,.02-.03,.04-.05,.04,0,0-.01,0-.02,0-.03,0-.04-.04-.03-.07,.03-.09,.06-.19,.08-.28-.08-.04-.13-.13-.11-.27,.05-.3,.35-.39,.29-.04,0,.02,.01,.04,.03,.04,.1,.05,.21,0,.33-.1,.06-.06,.22-.11,.29,0,.08,.13,.04,.32,.02,.45-.03,.2-.06,.4-.09,.6,0,.05-.02,.16,.04,.18,.12,.04,.24-.13,.38-.6,0-.03,.04-.04,.07-.03s.04,.04,.03,.07Z"/>
      <path class="cls-4" d="M133.63,34.08c-.11,.34-.26,.72-.51,.72-.02,0-.2,.01-.29-.08-.11-.13-.13-.29-.13-.68,0-.12,.02-.62,.03-.85,0,0,.01,0-.01,0-.08,.35-.25,1.02-.29,1.17-.08,.24-.21,.42-.44,.47-.09,.02-.19,.02-.28-.01-.03-.01-.07-.03-.09-.05-.06-.05-.11-.12-.13-.22-.01-.08,.01-.17,.07-.18,.05,0,.01,.04,.05,.13,.09,.2,.28,.12,.35,.05,0,0,.04-.04,.04-.07,0-.06-.07-.09-.11-.12-.13-.07-.29-.13-.39-.25-.05-.06-.08-.13-.1-.21-.02-.15,.05-.3,.15-.41,.15-.17,.49-.22,.68-.11,.22,.12,.2,.44-.07,.52-.03,0-.06-.02-.04-.04,.08-.1,.06-.26-.06-.29-.08-.02-.14,0-.21,.05-.08,.07-.08,.22,.02,.29,.08,.05,.42,.18,.47,.37,.04-.1,.22-.88,.27-1.08-.03,0-.37,0-.4,0-.14-.01-.13-.2,.01-.21,.04,0,.4,0,.44,0,.03-.11,.06-.2,.08-.25h0c.04-.13,.11-.17,.17-.19,.05-.02,.19,.01,.21,.13,.01,.06,0,.14,0,.31,.07,0,.14,0,.2,.02,.14,.01,.13,.2-.01,.21-.07,0-.14,0-.21,.01-.02,.26-.04,.84-.05,1.08,0,.05,0,.33,.08,.35,.12,.04,.24-.13,.38-.6,0-.03,.04-.04,.07-.03,.03,0,.04,.04,.03,.07Z"/>
      <path class="cls-4" d="M133.97,35.08c-.07,0-.12-.02-.17-.07-.05-.04-.07-.1-.07-.17s.02-.12,.07-.17,.1-.07,.17-.07,.12,.02,.17,.07,.07,.1,.07,.17-.02,.12-.07,.17c-.05,.05-.1,.07-.17,.07Zm.05-.82h-.1l-.11-.93-.06-1.34h.44l-.06,1.34-.11,.93Z"/>
    </g> -->
  </g>
  <g>
    <path class="cls-2" d="M23.76,9.35l-1.24-.02-.03,2,2.29,.03v-.82s.01-.08,0-.12c0-.04,0-.08-.01-.11,0-.04-.01-.08-.02-.11,0-.04-.02-.07-.03-.11-.01-.04-.03-.07-.04-.11-.02-.03-.03-.07-.05-.1-.02-.03-.04-.06-.06-.09-.02-.03-.04-.06-.07-.09-.02-.03-.05-.05-.08-.08-.03-.02-.05-.05-.08-.07-.03-.02-.06-.04-.09-.06-.03-.02-.06-.04-.09-.05-.03-.02-.06-.03-.1-.04-.03-.01-.07-.02-.1-.03-.03,0-.07-.01-.1-.02-.03,0-.07,0-.1,0h0Z"/>
    <path class="cls-2" d="M12.82,9.47l1.24-.02,.03,2-2.29,.03v-.82s-.01-.08,0-.12c0-.04,0-.08,.01-.11,0-.04,.01-.08,.02-.11,0-.04,.02-.07,.03-.11,.01-.04,.03-.07,.04-.11,.02-.03,.03-.07,.05-.1,.02-.03,.04-.06,.06-.09,.02-.03,.04-.06,.07-.09,.02-.03,.05-.05,.08-.08,.03-.02,.05-.05,.08-.07,.03-.02,.06-.04,.09-.06,.03-.02,.06-.04,.09-.05,.03-.02,.06-.03,.1-.04,.03-.01,.07-.02,.1-.03,.03,0,.07-.01,.1-.02,.03,0,.07,0,.1,0h0Z"/>
    
    <g>
      <path class="cls-1" d="M10.45,17.87s1.58-4.12,8.15-4.02c6.56,.1,7.89,3.48,7.89,3.48v3.34s-.47,7.46-9.55,5.25c-.34-.17-.7-.4-1.07-.68-1.18-.92-1.82-2.03-2.15-2.77-.28-.22-.64-.25-.89-.08-.21,.14-.27,.37-.28,.43,0,.06,0,.15,0,.26,0,0,.07,1.6,.96,3.14,.91,1.58,3.79,3.6,7.24,3.53,3.66-.07,5.99-2.45,6.47-2.96,.31-.32,.71-.79,1.09-1.4,.19-.32,.33-.59,.34-.58,.01,0-.19,.46-1.08,2.3-1.09,1.02-1.56,1.92-2.38,2.42-.85,.53-2.98,2.07-6.39,1.57-1.61-.4-2.65-.85-3.38-1.41,0,0-2.87-.94-4.4-4.1,0,0-.45-.51-.57-3.05v-4.67Z"/>
      <path class="cls-4" d="M30.31,20.45c-.73-.25-1.53,.15-1.78,.88s.41,2.76,.44,2.85l.03,.08s.01,.02,.02,.02,.02,0,.03,0l.07-.05c.08-.05,1.84-1.3,2.08-2s-.15-1.53-.88-1.78Zm-.29,.85c.26,.09,.4,.37,.32,.64s-.37,.4-.64,.32-.4-.37-.32-.64c.09-.26,.37-.4,.64-.32Z"/>
      <path class="cls-5" d="M4.26,20.72l1.84-1.83s.81-.17,1.23-.27c.35,1.73-1.29,2.19-1.92,3.23-.37-.34-.73-.73-1.15-1.13Z"/>
      <path class="cls-3" d="M21.25,6.92c.07,0,.14,.01,.2,.03,.07,.02,.08,.02,.14,.05,.06,.03,.16,0,.21,.05,.05,.04,.1,.09,.14,.15,.08,.11,.14,.23,.18,.36,.04,.13,.06,.26,.06,.4v1.48s0,.05,0,.07c0,.02-.01,.04-.02,.07,0,.02-.02,.04-.03,.06-.01,.02-.03,.04-.04,.05-.02,.02-.03,.03-.05,.04-.02,.01-.04,0-.06,.01-.02,0-.04,0-.07,0-.02,0-.04,0-.06,0h-.04s0,.44,0,.44c.23,.05,.57,.13,.79,.2l-.04-3.03c0-.11,0-.22-.03-.33-.03-.1-.11-.18-.18-.27-.02-.04-.1-.07-.14-.1-.04-.03-.09-.07-.14-.08h-7.62s-.11,.05-.15,.08c-.04,.03-.07,.06-.1,.1-.06,.09-.12,.16-.16,.26-.03,.1-.03,.23-.03,.34v3.17c.22-.08,.45-.13,.69-.2v-.64s-.03,.02-.03,.02c-.02,0-.05,0-.07,0-.02,0-.05,0-.07,0-.02,0-.04-.02-.06-.03-.02-.01-.04-.03-.05-.04-.02-.02-.03-.03-.04-.05-.01-.02-.02-.04-.03-.06,0-.02-.02-.04-.02-.07,0-.02,0-.05,0-.07v-1.44c0-.14,.02-.27,.06-.4s.15-.23,.23-.34c.04-.06,.06-.07,.11-.12s.1-.07,.16-.1c.06-.03,.12-.04,.18-.06,.07-.02,.14-.03,.21-.03l5.93,.02h.06Z"/>
      <path class="cls-4" d="M24.29,29.07c-1.68,.89-3.26,1.15-4.26,1.23-2.03,.15-3.54-.31-3.86-.41-1.05-.34-1.78-.78-2.04-.93-2.25-1.3-3.42-3.34-3.52-5.95-.06-1.6-.04-3.21-.12-4.82-.05-1.03,.34-1.86,.98-2.61,1.21-1.41,2.84-2.04,4.61-2.34,2.72-.47,5.38-.23,7.9,.94,.97,.45,2.05,1.16,2.45,2.2,.22,.57,.11,1.19,.11,1.78-.01,.87-.03,1.75-.12,2.62-.31,3.17-2.65,5.39-5.84,5.57-2.36,.13-4.44-.48-5.96-2.42-.26-.33-.44-.71-.64-1.08-.26-.49-.65-.68-1.06-.51-.41,.18-.51,.59-.26,1.14,1.1,2.38,3.03,3.71,5.54,4.18,3.02,.56,5.7-.12,7.85-2.42,2.25-2.41,1.78-5.84,1.93-8.87,.1-2.04-.98-3.75-2.71-4.78-.13-.08-.26-.15-.37-.25-.13-.11-.22-.25-.31-.39-.82-1.22-.64-2.27-.69-3.68-.04-1.3-.83-2.06-2.11-2.06-2.29,0-4.59,0-6.88,0-1.54,0-2.28,.72-2.32,2.27-.04,1.09,.1,2.07-.33,3.09-.42,.99-1.09,1.57-1.77,2.34s-1.06,1.8-1.24,2.77c-.17,.89-.84,1.48-1.73,1.55-.5,.04-1,.05-1.48,.13l-.52,.47c-.83,.79-2.48,2.35-2.48,2.35-.31,.27-.26,.8,.05,1.08,.61,.55,1,.97,1.61,1.52,.47,.42,.85,.56,1.18,.2l1.54-1.78,1.06-1.24s.24-1.61,.3-1.99c.03-.18,.12-.36,.19-.53,0,0,0-.01,0-.01,0,0,.01,0,.01,0,.07,.03,.11,.02,.13,.09,.02,.06,0,.15,0,.21,0,.14,0,.28,0,.43,0,1.57-.02,3.14,.03,4.7,.06,1.73,.49,3.24,1.29,4.52,.27,.44,1.39,2.16,3.5,3.16,.68,.32,1.42,.66,2.07,.83,.77,.21,1.86,.36,3.3,.35,3.22-.04,5.54-1.81,6.14-2.28,1-.79,1.6-1.57,1.78-1.81,.8-1.07,1.21-2.1,1.43-2.8-.53,.93-1.84,2.93-4.36,4.27ZM14.05,7.26c0-.43,.23-.66,.69-.66,2.35,0,4.7,.01,7.05,0,.5,0,.71,.25,.72,.69,.02,.97,0,1.94,0,3.02-2.84-.65-5.63-.68-8.46,.19,0-1.14,0-2.19,0-3.24Zm-1.71,5.84c1.24-1.06,2.74-1.52,4.31-1.72,2.39-.3,4.73-.08,6.96,.89,1.03,.45,1.96,1.06,2.5,1.99-4.86-2.86-9.76-3.12-14.83-.07,.38-.39,.68-.78,1.05-1.09Zm-7.03,8.54c-.37-.34-.68-.63-1.1-1.02l1.85-1.8,1.29-.31-.07,1.11-1.97,2.02Z"/>
      <path class="cls-5" d="M26.11,14.26c-4.86-2.86-9.76-3.12-14.83-.07,.38-.39,.68-.78,1.05-1.09,1.24-1.06,2.74-1.52,4.31-1.72,2.39-.3,4.73-.08,6.96,.89,1.03,.45,1.96,1.06,2.5,1.99Z"/>
      <path class="cls-4" d="M15.67,17.5c.91-.02,1.7,.69,1.78,1.61,.04,.41-.09,.73-.52,.84-.42,.1-.75-.02-.94-.45-.07-.16-.2-.29-.31-.44-.1,.14-.24,.27-.31,.42-.18,.42-.49,.58-.92,.48-.42-.1-.56-.43-.55-.83,.03-.88,.84-1.63,1.76-1.64Z"/>
      <path class="cls-4" d="M19.73,19.18c0-.9,.82-1.67,1.77-1.67,.94,0,1.75,.78,1.75,1.69,0,.39-.15,.68-.55,.76-.4,.09-.7-.06-.89-.45-.08-.17-.23-.31-.35-.46-.1,.15-.22,.29-.29,.45-.17,.39-.46,.56-.87,.48-.43-.08-.58-.39-.57-.8Z"/>
      <path class="cls-2" d="M14.99,9.46v-1.46c0-.12,.03-.23,.1-.32,.01-.02,.03-.04,.06-.06,.02-.01,.05-.02,.08-.03h6.07s.05,.01,.08,.03c.02,.01,.04,.03,.06,.06,.07,.1,.1,.2,.1,.32v1.49s0,.05,0,.07c0,.02,.01,.05,.02,.07,0,.02,.02,.04,.03,.06,.01,.02,.03,.04,.04,.05s.03,.03,.05,.04c.02,.01,.04,.02,.06,.03,.02,0,.04,.02,.07,.02,.02,0,.05,0,.07,0s.05,0,.07,0c.02,0,.05-.01,.07-.02,.02,0,.04-.02,.06-.03,.02-.01,.04-.03,.05-.04,.02-.02,.03-.03,.04-.05,.01-.02,.02-.04,.03-.06,0-.02,.02-.04,.02-.07,0-.02,0-.05,0-.07v-1.49c0-.14-.02-.27-.06-.4-.04-.13-.1-.25-.19-.36-.04-.06-.09-.11-.14-.15-.05-.05-.11-.08-.17-.12-.06-.03-.12-.06-.19-.07-.07-.02-.13-.03-.2-.03h-6.07c-.07,0-.14,.01-.2,.03-.07,.02-.13,.04-.19,.07-.06,.03-.12,.07-.17,.12-.05,.04-.1,.1-.14,.15-.08,.11-.14,.23-.19,.36-.04,.13-.06,.26-.06,.4v1.46s0,.05,0,.07c0,.02,.01,.05,.02,.07,0,.02,.02,.04,.03,.06,.01,.02,.03,.04,.04,.05,.02,.02,.03,.03,.05,.04,.02,.01,.04,.02,.06,.03,.02,0,.04,.02,.07,.02,.02,0,.05,0,.07,0s.05,0,.07,0c.02,0,.05-.01,.07-.02,.02,0,.04-.02,.06-.03,.02-.01,.04-.03,.05-.04,.02-.02,.03-.03,.04-.05,.01-.02,.02-.04,.03-.06,0-.02,.02-.04,.02-.07,0-.02,0-.05,0-.07Z"/>
    </g>
  </g>
</svg>