<?xml version="1.0" encoding="UTF-8"?>
<svg id="Layer_1" data-name="Layer 1" xmlns="http://www.w3.org/2000/svg" viewBox="0 0 749.11 413.62">
  <defs>
    <style>
      .cls-1, .cls-2, .cls-3, .cls-4, .cls-5 {
        stroke-width: 0px;
      }

      .cls-1, .cls-6 {
        fill: #e9d02f;
      }

      .cls-7 {
        font-size: 15px;
      }

      .cls-7, .cls-3, .cls-4 {
        fill: #04314d;
      }

      .cls-8 {
        letter-spacing: 0em;
      }

      .cls-8, .cls-6, .cls-9, .cls-10 {
        font-family: RettylldaPersonalUse, Rettyllda;
      }

      .cls-2, .cls-4 {
        fill-rule: evenodd;
      }

      .cls-2, .cls-10, .cls-5 {
        fill: #0e9e34;
      }

      .cls-6 {
        font-size: 77.55px;
      }

      .cls-11 {
        font-family: Cinzel-Medium, Cinzel;
        <!-- font-weight: 500; -->
      }

      .cls-10 {
        font-size: 77.55px;
      }
    </style>
  </defs>
  <g>
    <text class="cls-10" transform="translate(139.64 307.55)"><tspan x="0" y="0">Punnagai</tspan></text>
    <text class="cls-6" transform="translate(443.14 307.55)"><tspan x="0" y="0">Travels</tspan></text>
  </g>

  
  <text class="cls-7" transform="translate(450.54 338.4)">
  
  <tspan class="cls-9" x="0" y="0">Planning a trip</tspan>
  
  <tspan class="cls-11" x="92.45" y="0">?</tspan>
  
  <tspan class="cls-8" x="106.4" y="0">Speak to us First</tspan>
  
  <tspan class="cls-11" x="206.74" y="0">!</tspan>
  
  </text>




  <g>
    <path class="cls-4" d="m415.25,87.65l-7.49-.11-.18,12.1,13.91.2.07-4.97c0-.23,0-.47-.02-.7-.02-.23-.05-.46-.09-.69-.04-.23-.09-.46-.15-.68-.06-.22-.13-.44-.2-.66-.08-.22-.17-.43-.26-.64-.1-.21-.2-.41-.32-.6-.12-.2-.24-.39-.37-.57-.13-.18-.27-.36-.41-.53-.15-.17-.3-.33-.46-.48-.16-.15-.33-.29-.5-.42-.17-.13-.35-.26-.53-.37-.18-.11-.37-.21-.56-.3-.19-.09-.39-.18-.59-.24-.2-.07-.4-.13-.61-.18-.21-.05-.41-.08-.62-.11-.21-.02-.42-.04-.63-.04h0Z"/>
    <path class="cls-4" d="m348.96,88.38l7.49-.11.18,12.1-13.91.2-.07-4.97c0-.23,0-.47.02-.7.02-.23.05-.46.09-.69.04-.23.09-.46.15-.68.06-.22.13-.44.2-.66.08-.22.17-.43.26-.64.1-.21.2-.41.32-.6.12-.2.24-.39.37-.57.13-.18.27-.36.41-.53.15-.17.3-.33.46-.48.16-.15.33-.29.5-.42.17-.13.35-.26.53-.37.18-.11.37-.21.56-.3.19-.09.39-.18.59-.24.2-.07.4-.13.61-.18.21-.05.41-.08.62-.11.21-.02.42-.04.63-.04h0Z"/>
    <g>
      <path class="cls-1" d="m334.56,139.28s9.59-24.99,49.39-24.4c39.8.59,47.85,21.08,47.85,21.08v20.25s-2.84,45.2-57.92,31.84c-2.04-1.05-4.25-2.4-6.48-4.14-7.18-5.57-11.04-12.32-13.05-16.78-1.7-1.34-3.9-1.51-5.41-.5-1.26.84-1.62,2.23-1.71,2.64,0,.35,0,.9.04,1.57,0,0,.45,9.72,5.83,19.01,5.54,9.56,22.99,21.83,43.89,21.41,22.18-.44,36.33-14.86,39.23-17.94,1.9-1.95,4.33-4.76,6.63-8.51,1.18-1.92,1.99-3.55,2.06-3.52.09.04-1.16,2.82-6.54,13.95-6.63,6.2-9.37,12.05-14.39,15.13-5.18,3.18-17.3,13.98-38,10.96-9.76-2.44-16.93-7-21.33-10.39,0,0-17.41-5.69-26.65-24.87,0,0-2.72-3.08-3.43-18.48v-28.31Z"/>
      <path class="cls-3" d="m454.98,154.93c-4.45-1.5-9.29.9-10.79,5.35s2.5,16.76,2.67,17.29l.16.49c.02.06.06.1.12.12s.12.01.17-.02l.42-.3c.45-.32,11.15-7.86,12.6-12.14s-.9-9.29-5.35-10.79Zm-1.75,5.18c1.59.54,2.45,2.27,1.92,3.87s-2.27,2.45-3.87,1.92c-1.59-.54-2.45-2.27-1.92-3.87.54-1.59,2.27-2.45,3.87-1.92Z"/>
      <path class="cls-5" d="m297.03,156.56l11.18-11.12s4.89-1.03,7.47-1.62c2.1,10.48-7.84,13.27-11.66,19.56-2.22-2.07-4.43-4.44-6.99-6.82Z"/>
      <path class="cls-2" d="m400.04,72.92c.41,0,.83.07,1.23.17.4.1.51.1.87.3.37.19.95.04,1.26.31.31.27.59.57.83.91.49.66.86,1.38,1.12,2.17.25.78.38,1.59.37,2.41v8.95c0,.14-.01.28-.04.42-.03.14-.07.27-.12.4-.05.13-.12.26-.2.37-.08.12-.17.23-.27.33-.1.1-.21.19-.32.27-.12.08-.27.04-.39.09-.13.06-.26-.05-.4-.02-.14.03-.25.04-.39.04l-.24-.04v2.7c1.43.31,3.44.82,4.82,1.21l-.23-18.35c.01-.66-.02-1.36-.21-1.98-.19-.63-.7-1.1-1.08-1.63-.15-.25-.58-.44-.83-.6-.24-.16-.54-.44-.83-.48h-46.17c-.29.04-.64.32-.89.48-.25.16-.45.37-.6.62-.38.54-.75.97-.94,1.6-.19.63-.18,1.42-.16,2.07v19.21c1.36-.49,2.75-.8,4.16-1.21v-3.89s-.21.12-.21.12c-.14,0-.28.05-.42.02-.14-.03-.29.04-.42-.02-.13-.05-.26-.12-.37-.2-.12-.08-.23-.17-.33-.27-.1-.1-.19-.21-.27-.33-.08-.12-.14-.24-.2-.37-.05-.13-.09-.27-.12-.41-.03-.14-.04-.28-.04-.42v-8.74c0-.82.12-1.63.37-2.41s.9-1.39,1.39-2.05c.24-.34.34-.43.65-.71s.6-.42.97-.61c.37-.19.72-.25,1.11-.35.4-.1.85-.2,1.26-.2l35.95.15.33-.02Z"/>
      <path class="cls-3" d="m418.45,207.19c-10.18,5.4-19.75,6.97-25.8,7.43-12.29.93-21.43-1.89-23.38-2.51-6.37-2.04-10.78-4.75-12.35-5.66-13.61-7.86-20.71-20.27-21.36-36.07-.39-9.73-.27-19.48-.74-29.21-.31-6.26,2.09-11.3,5.96-15.82,7.33-8.57,17.22-12.37,27.94-14.2,16.5-2.83,32.59-1.41,47.92,5.69,5.88,2.72,12.45,7.01,14.86,13.33,1.32,3.45.69,7.19.64,10.8-.07,5.3-.21,10.61-.72,15.89-1.86,19.19-16.09,32.66-35.42,33.76-14.28.81-26.91-2.89-36.11-14.68-1.55-1.99-2.67-4.33-3.88-6.57-1.59-2.98-3.93-4.15-6.43-3.06-2.47,1.07-3.1,3.55-1.56,6.88,6.69,14.42,18.36,22.5,33.6,25.32,18.28,3.37,34.58-.73,47.6-14.68,13.64-14.61,10.8-35.42,11.68-53.8.6-12.38-5.91-22.75-16.4-29.01-.77-.46-1.57-.9-2.25-1.5-.76-.68-1.34-1.53-1.9-2.38-4.96-7.41-3.9-13.74-4.18-22.31-.26-7.88-5.01-12.48-12.79-12.5-13.91-.03-27.83-.03-41.74,0-9.31.03-13.79,4.39-14.08,13.79-.21,6.6.61,12.54-2.03,18.75-2.54,5.97-6.63,9.49-10.74,14.21s-6.43,10.91-7.54,16.76c-1.02,5.4-5.07,9-10.47,9.39-3.01.22-6.03.31-9,.78l-3.18,2.83c-5.05,4.79-15.01,14.27-15.01,14.27-1.9,1.63-1.59,4.83.3,6.54,3.69,3.35,6.04,5.88,9.74,9.22,2.84,2.56,5.15,3.42,7.13,1.19l9.34-10.78,6.42-7.51s1.47-9.75,1.8-12.04c.16-1.12.74-2.16,1.18-3.19.01-.03.03-.06.06-.07.03-.01.06,0,.09.01.45.17.64.14.76.54.1.36,0,.91,0,1.29,0,.86,0,1.72,0,2.58.05,9.51-.15,19.03.2,28.52.38,10.48,3,19.62,7.83,27.37,1.66,2.67,8.43,13.09,21.23,19.18,4.1,1.95,7.64,2.9,11.57,3.95,4.69,1.26,12.25,3.28,20.99,3.18,19.53-.23,33.58-10.98,37.2-13.83,6.09-4.79,9.71-9.49,10.81-10.97,4.84-6.49,7.33-12.76,8.66-16.99-3.22,5.65-11.18,17.78-26.46,25.89Zm-62.04-132.22c.03-2.62,1.4-3.99,4.16-3.97,14.24.03,28.48.06,42.72,0,3.01-.01,4.31,1.52,4.37,4.18.12,5.89.03,11.78.03,18.29-17.23-3.91-34.15-4.14-51.31,1.14,0-6.92-.05-13.28.02-19.64Zm-10.38,35.39c7.5-6.41,16.6-9.22,26.11-10.43,14.47-1.84,28.7-.5,42.22,5.42,6.27,2.75,11.9,6.44,15.18,12.07-29.45-17.37-59.18-18.89-89.89-.45,2.28-2.39,4.15-4.71,6.38-6.61Zm-42.64,51.79c-2.22-2.07-4.11-3.83-6.68-6.21l11.23-10.93,7.84-1.86-.45,6.74-11.94,12.26Z"/>
      <path class="cls-5" d="m429.52,117.42c-29.45-17.36-59.17-18.89-89.88-.45,2.28-2.39,4.15-4.71,6.38-6.61,7.5-6.41,16.61-9.22,26.11-10.43,14.48-1.85,28.71-.5,42.22,5.42,6.27,2.75,11.9,6.44,15.17,12.07Z"/>
      <path class="cls-3" d="m366.21,137.07c5.53-.1,10.28,4.18,10.81,9.78.23,2.46-.56,4.45-3.14,5.08-2.52.62-4.53-.14-5.69-2.71-.43-.97-1.23-1.77-1.86-2.65-.63.85-1.45,1.62-1.87,2.56-1.11,2.52-2.99,3.52-5.58,2.91-2.56-.61-3.42-2.59-3.33-5.02.2-5.32,5.08-9.85,10.65-9.95Z"/>
      <path class="cls-3" d="m390.83,147.27c.03-5.48,4.95-10.13,10.74-10.14,5.7-.01,10.6,4.76,10.6,10.27,0,2.37-.91,4.11-3.32,4.62-2.45.52-4.24-.38-5.37-2.73-.49-1.03-1.41-1.85-2.13-2.77-.6.9-1.35,1.74-1.77,2.72-1.03,2.39-2.78,3.37-5.27,2.89-2.63-.5-3.53-2.37-3.47-4.86Z"/>
      <path class="cls-4" d="m362.08,88.3v-8.82c-.02-.72.18-1.38.6-1.96.09-.14.2-.26.35-.35.14-.09.29-.14.46-.16h36.78c.16.02.32.08.46.16.14.09.25.2.35.35.41.59.61,1.24.6,1.96v9.04c0,.14.01.28.04.42.03.14.07.28.12.41.06.13.12.26.2.38.08.12.17.23.27.33s.21.19.33.27c.12.08.25.15.38.2.13.06.27.1.41.13.14.03.28.04.43.04s.28-.01.42-.04c.14-.03.28-.07.41-.13.13-.05.26-.12.38-.2.12-.08.23-.17.33-.27.1-.1.19-.21.27-.33.08-.12.15-.24.2-.38.05-.13.1-.27.12-.41.03-.14.04-.28.04-.42v-9.04c0-.83-.12-1.64-.38-2.43-.26-.79-.63-1.52-1.13-2.19-.25-.34-.52-.64-.84-.92-.31-.27-.66-.51-1.03-.7-.37-.19-.76-.34-1.16-.45-.4-.11-.81-.16-1.23-.17h-36.78c-.42,0-.83.06-1.23.17-.4.1-.79.25-1.16.45-.37.19-.71.43-1.03.7-.32.27-.59.58-.84.92-.49.67-.87,1.4-1.13,2.19-.26.79-.38,1.6-.37,2.43v8.82c0,.14.01.28.04.42.03.14.07.27.12.41.05.13.12.26.2.38.08.12.17.23.27.33.1.1.21.19.33.27.12.08.24.15.38.2.13.06.27.1.41.13.14.03.28.04.43.04s.28-.01.42-.04c.14-.03.28-.07.41-.13.13-.05.26-.12.38-.2.12-.08.23-.17.33-.27.1-.1.19-.21.27-.33.08-.12.15-.25.2-.38.05-.13.1-.27.12-.41.03-.14.04-.28.04-.42Z"/>
    </g>
  </g>
</svg>